<ttFont>
          <CharString index="0">
            14 789 184 rmoveto
            -70 callsubr
            -33 callsubr
            rrcurveto
            -97 callgsubr
            42 94 89 19 101 -35 callgsubr
            rrcurveto
            -327 52 -66 callsubr
            return
          </CharString>
          <CharString index="1">
            -104 callsubr
            -40 7 -38 11 -39 12 4 -19 3 -18 3 -18 -23 -6 -24 -7 -23 -7 75 -9 rcurveline
            10 -68 5 -69 -68 vvcurveto
            -149 -24 -150 -44 -150 vhcurveto
            -19 callsubr
            rrcurveto
            return
          </CharString>
          <CharString index="2">
            -103 329 -6 callsubr
            110 5 callgsubr
            1 callgsubr
            -25 rlinecurve
            -105 callgsubr
            return
          </CharString>
          <CharString index="3">
            -97 callsubr
            57 4 59 6 57 131 -30 127 -41 123 -52 -55 callsubr
            -56 3 -55 hhcurveto
            -128 -126 -14 -26 -125 hvcurveto
            return
          </CharString>
          <CharString index="4">
            63 846 681 rmoveto
            -100 callgsubr
            -23 -23 -14 0 vvcurveto
            -12 47 44 -6 40 hhcurveto
            325 171 260 455 hvcurveto
            return
          </CharString>
          <CharString index="5">
            -4 775 580 rmoveto
            -100 callsubr
            -19 -20 -11 0 vvcurveto
            -9 41 40 -5 38 -31 callgsubr
            return
          </CharString>
          <CharString index="6">
            -101 callgsubr
            endchar
          </CharString>
          <CharString index="7">
            -99 callsubr
            -199 74 -154 137 -43 vhcurveto
            -22 return
          </CharString>
          <CharString index="8">
            -16 -37 -40 -5 -38 hhcurveto
            -61 -76 12 15 -54 hvcurveto
            35 -70 29 -88 -53 vvcurveto
            -91 -38 -138 -117 -13 -18 3 6 -23 vhcurveto
            -2 -15 rlineto
            -34 48 -16 58 67 vvcurveto
            80 24 70 48 110 vhcurveto
            -29 -79 -78 -6 -54 hhcurveto
            -42 -39 4 0 hvcurveto
            -8 -54 -4 -27 -48 vvcurveto
            return
          </CharString>
          <CharString index="9">
            rmoveto
            -40 13 -53 17 -38 22 7 -40 -10 -50 -24 -35 -30 35 -15 40 -16 52 -25 -29 -48 -9 -40 -8 57 -36 36 -61 25 -67 121 -4 rcurveline
            16 62 28 51 49 47 rrcurveto
            endchar
          </CharString>
          <CharString index="10">
            rrcurveto
            -9 44 -4 44 44 vvcurveto
            48 5 48 8 48 vhcurveto
            -130 -45 -128 -31 -126 -17 rrcurveto
            -6 74 -3 76 68 vvcurveto
            67 -19 65 -24 63 -30 rrcurveto
            -5 24 -2 24 24 vvcurveto
            31 4 30 7 30 vhcurveto
            -66 -1 -66 -8 -66 -15 1 return
          </CharString>
          <CharString index="11">
            -20 -21 -22 -19 -22 -16 -71 92 -126 45 -89 25 rrcurveto
            0 -55 15 -11 51 vhcurveto
            2 24 24 2 26 hhcurveto
            86 100 -16 -45 109 hvcurveto
            0 -4 29 31 vvcurveto
            49 7 71 34 48 vhcurveto
            -129 -20 -107 0 -7 callgsubr
            -379 0 -86 -236 vhcurveto
            0 25 14 44 16 vhcurveto
            4 -45 16 -39 38 -30 94 -73 161 12 73 -82 rrcurveto
            -7 -32 -33 -3 -31 hhcurveto
            -65 -145 9 71 -151 hvcurveto
            0 62 -97 45 -153 vhcurveto
            return
          </CharString>
          <CharString index="12">
            vvcurveto
            25 4 24 6 -28 callsubr
            2 44 3 44 5 44 114 -25 112 -34 111 -42 rrcurveto
            -3 24 -1 21 16 -27 callgsubr
            -58 -49 3 -50 hhcurveto
            -113 -112 -11 -20 -109 hvcurveto
            return
          </CharString>
          <CharString index="13">
            58 863 32 rmoveto
            -72 74 -61 81 -50 88 94 82 65 119 18 118 -82 callgsubr
            34 34 5 9 32 hvcurveto
            32 -75 21 -79 7 -82 93 50 98 30 103 8 rrcurveto
            -368 529 -48 callsubr
            return
          </CharString>
          <CharString index="14">
            -8 787 26 rmoveto
            -60 56 -53 65 -47 74 84 66 58 94 16 94 -49 callgsubr
            15 35 12 -64 callgsubr
            28 27 3 6 26 hvcurveto
            27 -59 17 -64 7 -71 92 45 89 26 94 7 rrcurveto
            -331 423 -37 callsubr
            61 2 63 2 62 vhcurveto
            4 42 37 3 26 hhcurveto
            return
          </CharString>
          <CharString index="15">
            726 267 rmoveto
            -96 callgsubr
            return
          </CharString>
          <CharString index="16">
            673 rmoveto
            -86 callsubr
            142 -153 76 -222 vhcurveto
            110 57 137 1 0 vvcurveto
            -27 88 -13 84 78 -14 callgsubr
            return
          </CharString>
          <CharString index="17">
            130 935 540 rmoveto
            -98 -88 16 33 -90 hvcurveto
            -5 -131 -9 -105 -30 -106 rrcurveto
            -40 74 -20 66 116 vvcurveto
            -4 -28 -25 -1 -23 hhcurveto
            -27 -32 3 5 -36 hvcurveto
            4 -83 -20 -70 -32 -100 -13 121 -26 80 -39 123 -89 -22 -90 -13 -88 -4 rrcurveto
            102 -138 45 -152 -163 vvcurveto
            -25 -1 -24 -2 -24 vhcurveto
            1 19 25 2 15 hhcurveto
            64 70 -15 -20 73 hvcurveto
            7 72 32 72 25 61 38 -64 30 -76 25 -79 79 23 81 18 83 7 rrcurveto
            188 44 171 90 167 vhcurveto
            return
          </CharString>
          <CharString index="18">
            -83 callsubr
            rrcurveto
            -266 43 159 -133 233 hhcurveto
            return
          </CharString>
          <CharString index="19">
            582 rmoveto
            -59 callgsubr
            12 64 56 7 53 -63 callsubr
            return
          </CharString>
          <CharString index="20">
            35 -30 29 -37 -38 -30 -29 -35 -36 30 -29 38 37 30 29 36 vhcurveto
            return
          </CharString>
          <CharString index="21">
            -96 7 -86 31 -78 55 rrcurveto
            -52 -103 -23 -113 -120 vvcurveto
            -55 5 -56 9 -58 vhcurveto
            -261 469 -122 -61 -98 -23 -121 17 rlinecurve
            56 -38 49 -37 42 -35 rrcurveto
            11 -57 6 -55 -52 vvcurveto
            -155 -50 -133 -93 -115 vhcurveto
            8 40 40 4 38 hhcurveto
            61 58 -10 -20 56 hvcurveto
            26 97 13 98 99 vvcurveto
            27 -1 28 -2 28 vhcurveto
            3 -4 2 -3 -7 callgsubr
            return
          </CharString>
          <CharString index="22">
            rmoveto
            0 12 -96 -62 -12 vhcurveto
            -32 -7 -37 21 7 67 -38 -8 -40 -1 -32 5 -7 -70 42 -94 110 9 135 11 -11 148 -47 27 rrcurveto
            endchar
          </CharString>
          <CharString index="23">
            4 797 7 callgsubr
            -100 -105 -107 -19 -67 hhcurveto
            -117 -91 71 122 -22 callgsubr
            -25 -6 -8 callgsubr
            44 146 68 120 -89 callsubr
            136 189 45 243 32 hvcurveto
            return
          </CharString>
          <CharString index="24">
            hhcurveto
            64 77 -17 -58 77 hvcurveto
            -5 31 -2 31 31 vvcurveto
            59 9 60 19 59 vhcurveto
            15 -82 -72 6 -63 hhcurveto
            -276 -216 -137 -264 -24 hvcurveto
            -17 3 -17 5 -15 5 return
          </CharString>
          <CharString index="25">
            74 954 708 rmoveto
            -16 -72 -69 -7 -64 hhcurveto
            -56 -53 5 12 -50 hvcurveto
            -29 -96 -46 -82 -69 -67 -63 65 -46 81 -30 95 rrcurveto
            -16 -51 -56 -7 -60 hhcurveto
            -49 -53 5 9 -54 hvcurveto
            137 -112 108 -134 81 -153 -8 -99 -30 -94 -44 -91 rrcurveto
            10 51 50 5 50 hhcurveto
            77 75 -12 -23 76 hvcurveto
            -36 79 -21 85 91 vvcurveto
            10 0 10 1 10 vhcurveto
            111 162 138 143 154 132 rrcurveto
            return
          </CharString>
          <CharString index="26">
            -47 734 193 rmoveto
            -80 -109 -91 -15 -56 hhcurveto
            -97 -76 56 98 -46 callgsubr
            122 52 100 -88 callgsubr
            123 179 73 158 22 hvcurveto
            return
          </CharString>
          <CharString index="27">
            -81 callgsubr
            endchar
          </CharString>
          <CharString index="28">
            -42 callsubr
            rrcurveto
            37 147 15 147 148 -16 callgsubr
            23 -100 14 -101 -103 vvcurveto
            -69 -6 -70 -13 -70 vhcurveto
            -42 callgsubr
            return
          </CharString>
          <CharString index="29">
            rmoveto
            -119 -103 -73 -102 -34 -40 7 22 -43 vhcurveto
            -1 -30 -5 -27 -9 -27 rrcurveto
            -51 42 -38 51 59 vvcurveto
            115 112 72 98 28 33 -4 -13 38 vhcurveto
            return
          </CharString>
          <CharString index="30">
            -15 762 -19 rmoveto
            -24 62 -12 61 62 vvcurveto
            37 5 38 8 37 vhcurveto
            -108 -52 -102 -39 -102 -31 124 154 113 172 52 166 31 4 31 3 32 2 rrcurveto
            48 -166 -160 25 -174 hhcurveto
            -82 -86 -6 -11 -90 hvcurveto
            8 -36 3 -36 -38 vvcurveto
            -57 -8 -59 -14 -61 vhcurveto
            143 79 140 58 148 39 -83 -196 -155 -177 -138 -150 -33 -6 -34 -6 -35 -5 rrcurveto
            -53 218 211 -29 272 22 22 1 23 hhcurveto
            return
          </CharString>
          <CharString index="31">
            11 829 -84 callgsubr
            return
          </CharString>
          <CharString index="32">
            hhcurveto
            -266 -296 -115 -284 -162 115 -87 137 -28 hvcurveto
            -17 -21 -19 -19 -22 -19 rrcurveto
            -13 33 73 -3 59 hhcurveto
            return
          </CharString>
          <CharString index="33">
            rmoveto
            -12 40 -5 52 8 37 -89 -29 -114 0 -86 20 16 -37 -1 -56 -4 -37 88 27 116 0 83 -17 rrcurveto
            endchar
          </CharString>
          <CharString index="34">
            -35 2 -33 -72 callgsubr
            return
          </CharString>
          <CharString index="35">
            rmoveto
            -47 42 -42 43 -31 51 -20 -38 -52 -40 -35 -19 67 -31 49 -31 46 -46 rrcurveto
            endchar
          </CharString>
          <CharString index="36">
            331 hmoveto
            -13 80 -8 80 -4 81 59 -27 58 -33 58 -38 rrcurveto
            -5 35 -4 32 24 vvcurveto
            31 4 31 7 31 vhcurveto
            -35 -6 1 -6 hhcurveto
            -45 -44 -3 -6 -44 hvcurveto
            41 vlineto
            28 0 28 1 28 vhcurveto
            125 -28 123 -36 121 -44 rrcurveto
            -6 38 -2 33 32 vvcurveto
            39 4 40 7 40 vhcurveto
            8 -66 -57 4 -57 hhcurveto
            -62 -62 -5 -8 -61 hvcurveto
            4 0 4 1 5 vhcurveto
            -3 -32 -27 -1 -24 hhcurveto
            -41 -45 3 6 -44 hvcurveto
            -63 vlineto
            -25 -7 -24 -7 -24 -8 rrcurveto
            2 hlineto
            71 -9 -3 -186 -16 -172 -43 -170 rlinecurve
            31 95 82 16 117 hhcurveto
            return
          </CharString>
          <CharString index="37">
            -28 45 -23 58 -20 68 -28 -20 -29 -17 -28 -16 -33 80 -29 84 -24 87 -36 -7 -33 -4 -32 -3 12 25 13 24 14 23 return
          </CharString>
          <CharString index="38">
            -85 -28 -37 7 22 -48 vhcurveto
            -1 -22 -3 -21 -6 -20 rrcurveto
            -36 31 -25 37 44 vvcurveto
            92 93 57 82 return
          </CharString>
          <CharString index="39">
            310 -88 callsubr
            return
          </CharString>
          <CharString index="40">
            -14 -6 -15 -4 -14 -3 rrcurveto
            5 1 6 6 vvcurveto
            79 -52 76 -110 -117 -68 -88 -107 -14 1 -12 2 -14 vhcurveto
            14 5 14 5 14 4 rrcurveto
            -1 -6 0 -6 -6 vvcurveto
            -80 53 -76 110 116 69 88 108 13 -1 13 -2 14 vhcurveto
            return
          </CharString>
          <CharString index="41">
            rmoveto
            -7 -33 -33 -3 -33 hhcurveto
            -12 -11 0 1 -12 hvcurveto
            16 58 18 55 19 51 31 -52 27 -53 23 -50 rrcurveto
            return
          </CharString>
          <CharString index="42">
            -152 489 2 rmoveto
            -48 143 -23 145 -4 147 -61 callgsubr
            rrcurveto
            -54 -129 -21 -135 -147 -18 callgsubr
            return
          </CharString>
          <CharString index="43">
            rrcurveto
            8 hlineto
            89 84 -10 -17 73 hvcurveto
            -15 callsubr
            -15 -84 -84 -6 -84 hhcurveto
            -15 hlineto
            1 36 2 36 3 36 -22 -35 -20 -36 -18 -36 -128 5 -126 19 -120 27 -17 callgsubr
            98 43 107 26 106 11 return
          </CharString>
          <CharString index="44">
            30 24 -3 24 hhcurveto
            -11 81 -5 85 85 vvcurveto
            113 9 112 19 108 vhcurveto
            return
          </CharString>
          <CharString index="45">
            rmoveto
            -25 -10 -25 -10 -24 -8 rrcurveto
            -2 22 0 22 23 vvcurveto
            95 11 114 18 92 vhcurveto
            -34 hlineto
            -81 -89 24 33 -94 hvcurveto
            44 -147 27 -165 12 -158 rrcurveto
            -4 -34 -35 -2 -34 -32 callsubr
            return
          </CharString>
          <CharString index="46">
            -101 callgsubr
            187 -12 -101 callsubr
          </CharString>
          <CharString index="47">
            25 26 -2 -2 27 hvcurveto
            -13 102 -6 106 106 vvcurveto
            141 11 141 21 135 vhcurveto
            return
          </CharString>
          <CharString index="48">
            -43 321 558 rmoveto
            -3 -34 -22 -1 -21 hhcurveto
            -51 -54 9 19 -62 hvcurveto
            12 -75 6 -71 -68 vvcurveto
            -144 -23 -139 -47 -137 vhcurveto
            100 29 86 18 99 5 -7 72 -4 73 -1 72 83 -72 61 -92 44 -107 82 43 84 29 86 16 rrcurveto
            4 hlineto
            -95 75 -86 83 -65 99 97 41 95 57 84 65 rrcurveto
            -2 hlineto
            -82 32 -74 46 -62 66 -74 -112 -83 -99 -96 -78 2 83 7 83 13 83 rrcurveto
            return
          </CharString>
          <CharString index="49">
            -88 6 -78 27 -75 49 rrcurveto
            -50 -89 -21 -92 -95 vvcurveto
            -30 1 -32 4 -31 vhcurveto
            -207 338 -117 -53 -73 -16 -120 10 rlinecurve
            return
          </CharString>
          <CharString index="50">
            45 -51 29 -74 -79 -58 -30 -47 -45 55 -29 80 79 48 30 47 vhcurveto
            return
          </CharString>
          <CharString index="51">
            -18 766 -50 callsubr
            -1 -29 -1 -29 -3 -28 -34 4 -34 7 -34 11 12 -52 -1 -53 -9 -49 25 8 28 5 30 4 -15 -74 -21 -73 -27 -72 -29 callgsubr
            -349 -142 rmoveto
            -12 46 -3 56 15 43 -28 -8 -28 -6 -27 -5 3 116 rcurveline
            -3 callsubr
            -14 callsubr
            42 -1 42 42 vvcurveto
            39 -3 31 -4 13 -3 rrcurveto
            endchar
          </CharString>
          <CharString index="52">
            rrcurveto
            -2 23 -1 23 23 vvcurveto
            63 8 62 16 60 vhcurveto
            5 -56 return
          </CharString>
          <CharString index="53">
            -9 -34 -33 -3 -29 hhcurveto
            -18 -16 1 2 -14 hvcurveto
            18 -16 18 -38 -28 vvcurveto
            -19 -8 -15 -22 vhcurveto
            -41 -8 120 -109 hhcurveto
            -48 -72 -23 -84 -73 26 -42 0 hvcurveto
            7 24 28 4 26 hhcurveto
            20 19 -2 -5 16 hvcurveto
            -6 17 -7 26 20 vvcurveto
            18 5 14 17 vhcurveto
            50 15 -112 103 hhcurveto
            58 52 42 77 85 -30 36 0 hvcurveto
            return
          </CharString>
          <CharString index="54">
            rmoveto
            -29 -14 -28 -13 -29 -11 rrcurveto
            -1 40 -1 44 32 vvcurveto
            119 12 117 20 116 vhcurveto
            -1 -9 -9 0 -9 hhcurveto
            -94 -96 28 38 -97 hvcurveto
            48 -184 31 -207 14 -193 rrcurveto
            -7 -42 -44 -3 -43 -26 callgsubr
            return
          </CharString>
          <CharString index="55">
            -200 598 214 -62 callsubr
            return
          </CharString>
          <CharString index="56">
            rmoveto
            -38 8 -45 7 -56 47 -40 -262 -211 -347 -215 -205 264 144 234 300 107 308 rrcurveto
            return
          </CharString>
          <CharString index="57">
            323 rmoveto
            -12 -4 -13 -4 -13 -3 rrcurveto
            7 1 7 8 vvcurveto
            147 -173 120 -262 -63 -146 -10 -19 -66 vhcurveto
            38 -48 19 -56 -66 vvcurveto
            -11 -2 -17 -3 -23 vhcurveto
            21 14 21 12 21 9 return
          </CharString>
          <CharString index="58">
            101 887 345 rmoveto
            128 -72 90 -98 45 vhcurveto
            27 50 26 49 24 48 -79 -6 -111 21 -56 47 -5 -33 -7 -35 -9 -36 rrcurveto
            -249 -16 -254 -118 -263 vvcurveto
            -149 97 -86 122 -34 vhcurveto
            -33 -54 -34 -53 -36 -51 35 23 37 28 36 32 rrcurveto
            -6 37 53 -2 45 9 callgsubr
            hvcurveto
            -579 -185 rmoveto
            -39 38 -27 44 50 vvcurveto
            115 112 72 98 vhcurveto
            2 hlineto
            -40 -105 -49 -108 -57 -106 rrcurveto
            334 319 rmoveto
            16 -24 10 -30 -38 vvcurveto
            -119 -103 -73 -102 -5 -5 -1 1 -4 vhcurveto
            68 88 65 98 60 98 rrcurveto
            return
          </CharString>
          <CharString index="59">
            rmoveto
            83 30 -20 -36 30 hvcurveto
            -12 callsubr
            -111 -80 -47 -101 -13 rrcurveto
            77 2 78 3 78 vhcurveto
            7 54 42 3 34 hhcurveto
            return
          </CharString>
          <CharString index="60">
            73 326 -18 rmoveto
            4 98 2 99 1 98 60 -23 61 -20 62 -16 rrcurveto
            -85 4 -83 8 -84 vhcurveto
            22 68 56 11 69 hhcurveto
            21 21 -1 -2 24 hvcurveto
            -20 62 -13 60 -8 60 33 -3 33 -2 35 -1 rrcurveto
            -7 46 -3 47 46 vvcurveto
            46 3 45 7 46 vhcurveto
            -34 -9 -34 -9 -33 -7 return
          </CharString>
          <CharString index="61">
            -51 callsubr
            163 -673 rmoveto
            -8 53 -5 53 54 vvcurveto
            42 3 42 6 43 vhcurveto
            -12 -32 -46 -6 -31 -7 -7 1 -7 hhcurveto
            6 -32 4 -29 1 -27 rrcurveto
            -4 -23 -23 -2 -23 hhcurveto
            -11 -11 1 1 -12 hvcurveto
            24 64 34 51 39 47 rrcurveto
            -3 -19 -19 -2 -19 hhcurveto
            -29 -39 4 7 -28 hvcurveto
            -14 -92 -30 -85 -44 -81 rrcurveto
            10 55 65 5 54 hhcurveto
            23 22 -1 -1 23 hvcurveto
            -8 -49 -14 -43 -13 -43 rrcurveto
            23 42 60 12 47 5 4 -1 5 hhcurveto
            return
          </CharString>
          <CharString index="62">
            5 -44 -41 11 callgsubr
            -44 -107 -81 -91 vhcurveto
            7 43 38 4 32 hhcurveto
            50 54 -9 -19 59 hvcurveto
            return
          </CharString>
          <CharString index="63">
            47 837 -51 callgsubr
            -1 -180 -36 -178 -58 -174 -24 callgsubr
            -223 -40 rmoveto
            -13 callgsubr
            -2 72 -1 72 72 vvcurveto
            79 1 79 2 80 vhcurveto
            -5 callgsubr
            return
          </CharString>
          <CharString index="64">
            rrcurveto
            21 55 53 8 47 hhcurveto
            117 81 -49 0 hvcurveto
            return
          </CharString>
          <CharString index="65">
            -3 rmoveto
            -17 47 -7 50 52 vvcurveto
            27 2 27 3 26 vhcurveto
            -122 -18 -112 -29 -105 -39 return
          </CharString>
          <CharString index="66">
            -34 -21 -32 -24 -32 -24 rrcurveto
            24 127 127 11 125 hhcurveto
            112 110 -9 1 callgsubr
            hvcurveto
            return
          </CharString>
          <CharString index="67">
            rmoveto
            -57 callsubr
            return
          </CharString>
          <CharString index="68">
            -38 callgsubr
            183 2 callsubr
            return
          </CharString>
          <CharString index="69">
            -4 rmoveto
            -20 61 -8 63 63 vvcurveto
            32 2 32 4 33 vhcurveto
            -137 -23 -129 -38 -121 -53 return
          </CharString>
          <CharString index="70">
            rmoveto
            67 26 -16 -29 26 hvcurveto
            -1 hlineto
            0 0 -1 1 vhcurveto
            -26 -5 -26 -4 -25 -4 -10 -83 -62 -39 -79 -12 rrcurveto
            return
          </CharString>
          <CharString index="71">
            hhcurveto
            -42 60 -38 63 -34 68 31 13 31 15 30 17 return
          </CharString>
          <CharString index="72">
            481 rmoveto
            -10 -5 -10 -5 -10 -4 -1 47 -54 31 -3 2 2 1 61 35 2 57 36 -10 rcurveline
            74 -34 -86 44 -93 hhcurveto
            -44 -77 -13 -19 -46 hvcurveto
            23 -39 17 -40 6 -42 55 42 65 14 66 4 rrcurveto
            1 -2 0 -3 -2 vvcurveto
            -27 -13 -50 -75 -2 vhcurveto
            1 -54 rlineto
            -2 79 -2 -61 -2 0 -2 -1 -2 hvcurveto
            -51 -72 13 26 -56 hvcurveto
            -43 -8 -38 -17 -37 vhcurveto
            -9 41 57 -5 33 hhcurveto
            105 71 45 83 42 hvcurveto
            return
          </CharString>
          <CharString index="73">
            rmoveto
            -66 -38 -78 -21 -75 -8 rrcurveto
            52 75 124 0 130 vvcurveto
            3 0 4 -1 4 vhcurveto
            13 -3 12 -4 12 -5 rrcurveto
            79 -44 -73 36 -80 hhcurveto
            -39 -85 -6 -30 -55 hvcurveto
            24 -40 10 -45 -52 vvcurveto
            50 49 72 22 66 6 rrcurveto
            1 -5 1 -4 -5 vvcurveto
            -107 -135 22 -59 -125 vhcurveto
            -12 1 -13 1 -12 2 rrcurveto
            -60 56 71 -28 85 hhcurveto
            40 59 6 13 46 hvcurveto
            3 51 6 31 24 51 rrcurveto
            return
          </CharString>
          <CharString index="74">
            -43 -19 -39 -25 -36 -29 -62 3 -64 10 -62 17 return
          </CharString>
          <CharString index="75">
            hhcurveto
            -76 -82 12 27 -91 hvcurveto
            43 -81 -1 -59 -82 vvcurveto
            287 18 185 90 100 154 rrcurveto
            return
          </CharString>
          <CharString index="76">
            -157 654 263 -53 callsubr
            return
          </CharString>
          <CharString index="77">
            528 rmoveto
            -47 -12 -86 -2 -43 14 14 -44 11 -43 5 -43 -42 4 -42 9 -42 15 10 callsubr
            45 7 48 4 -4 -41 -9 -40 -14 -40 48 12 87 -1 45 -8 rrcurveto
            -12 31 -8 42 -5 46 47 -3 43 -5 32 -7 -26 callsubr
            -43 -14 -41 -10 -41 -6 2 50 6 45 10 31 rrcurveto
            return
          </CharString>
          <CharString index="78">
            hhcurveto
            -76 -165 10 80 -155 hvcurveto
            0 68 -117 48 -178 vhcurveto
            return
          </CharString>
          <CharString index="79">
            24 vhcurveto
            -62 -1 -58 -5 -55 -10 return
          </CharString>
          <CharString index="80">
            2 rmoveto
            -19 callgsubr
            126 -13 124 -23 122 -31 -97 callsubr
            return
          </CharString>
          <CharString index="81">
            -12 47 -2 86 14 43 return
          </CharString>
          <CharString index="82">
            256 rmoveto
            -39 callsubr
            endchar
          </CharString>
          <CharString index="83">
            -123 43 -25 callgsubr
            96 37 return
          </CharString>
          <CharString index="84">
            rrcurveto
            29 88 78 15 64 hhcurveto
            19 21 -1 -3 21 hvcurveto
            -3 return
          </CharString>
          <CharString index="85">
            -57 callgsubr
            222 -26 -45 callgsubr
          </CharString>
          <CharString index="86">
            161 -114 102 -137 27 return
          </CharString>
          <CharString index="87">
            rmoveto
            69 2 95 -33 41 -28 19 88 37 79 48 70 -51 4 -39 19 -26 21 -40 -88 -77 -89 -76 -45 rrcurveto
            return
          </CharString>
          <CharString index="88">
            100 28 103 -6 107 1 return
          </CharString>
          <CharString index="89">
            vvcurveto
            -19 0 -20 1 -19 vhcurveto
            26 77 81 12 85 13 13 -1 13 hhcurveto
            return
          </CharString>
          <CharString index="90">
            rrcurveto
            9 -38 5 -38 -36 vvcurveto
            -39 -6 -42 -12 -46 vhcurveto
            return
          </CharString>
          <CharString index="91">
            229 700 rmoveto
            -10 -40 -101 -8 -42 -8 -7 1 -8 hhcurveto
            28 -87 10 -44 6 -116 rrcurveto
            3 13 39 3 15 hhcurveto
            11 35 -1 -1 11 hvcurveto
            2 105 8 62 28 93 rrcurveto
            return
          </CharString>
          <CharString index="92">
            -10 38 -4 31 26 vvcurveto
            45 12 30 15 28 vhcurveto
            return
          </CharString>
          <CharString index="93">
            -1 -16 -16 0 -13 hhcurveto
            14 -117 -80 -76 -102 -32 rrcurveto
            -2 return
          </CharString>
          <CharString index="94">
            vvcurveto
            123 43 107 80 91 vhcurveto
            return
          </CharString>
          <CharString index="95">
            -1 vlineto
            -28 -6 -28 -4 -28 -5 -13 return
          </CharString>
          <CharString index="96">
            64 hhcurveto
            -22 76 -10 59 67 vvcurveto
            -89 -117 -97 -74 -96 -84 105 -94 92 -97 91 -99 rrcurveto
            -1 11 -1 12 11 vvcurveto
            58 16 60 23 50 vhcurveto
            endchar
          </CharString>
          <CharString index="97">
            -513 283 104 -45 callgsubr
          </CharString>
          <CharString index="98">
            -5 -20 -139 hvcurveto
            22 -36 12 return
          </CharString>
          <CharString index="99">
            -152 rmoveto
            6 -6 77 -109 vhcurveto
            return
          </CharString>
          <CharString index="100">
            -66 -55 -118 -13 -59 13 9 -47 7 -54 5 -57 -55 4 -52 9 -40 14 -25 callgsubr
            return
          </CharString>
          <CharString index="101">
            2 rmoveto
            -2 9 return
          </CharString>
          <CharString index="102">
            13 55 51 6 50 hhcurveto
            51 50 -6 -13 53 hvcurveto
            return
          </CharString>
          <CharString index="103">
            12 57 49 6 41 hhcurveto
            44 43 -5 -10 59 hvcurveto
            return
          </CharString>
          <CharString index="104">
            73 -7 110 -30 30 -95 rrcurveto
            return
          </CharString>
          <CharString index="105">
            rmoveto
            -37 -37 -29 -47 -46 -38 29 37 38 38 29 46 47 37 -29 -38 vhcurveto
            return
          </CharString>
          <CharString index="106">
            10 20 -57 hvcurveto
            -9 callgsubr
            16 43 return
          </CharString>
          <CharString index="107">
            hhcurveto
            20 -73 11 -62 -68 vvcurveto
            82 112 100 79 99 83 rrcurveto
            endchar
          </CharString>
          <CharString index="108">
            13 58 rrcurveto
            -29 -36 -57 -13 -43 hhcurveto
            -13 -12 2 2 -9 hvcurveto
            9 return
          </CharString>
          <CharString index="109">
            -20 97 -7 rrcurveto
            return
          </CharString>
          <CharString index="110">
            vvcurveto
            7 0 7 -1 8 vhcurveto
            25 -6 24 -8 24 -10 rrcurveto
            return
          </CharString>
          <CharString index="111">
            rrcurveto
            34 50 77 16 58 hhcurveto
            15 15 -1 -2 12 hvcurveto
            return
          </CharString>
          <CharString index="112">
            -5 -145 32 12 -48 -1 -37 -8 -45 96 37 return
          </CharString>
          <CharString index="113">
            567 rmoveto
            return
          </CharString>
          <CharString index="114">
            rrcurveto
            -1 vlineto
            return
          </CharString>
          <CharString index="115">
            64 43 105 15 58 -11 return
          </CharString>
          <CharString index="116">
            -25 rrcurveto
            -5 22 -2 22 20 vvcurveto
            25 return
          </CharString>
          <CharString index="117">
            -25 callgsubr
            33 13 return
          </CharString>
        <CharString name=".notdef">
          -410 endchar
        </CharString>
        <CharString name="A">
          -107 callgsubr
          endchar
        </CharString>
        <CharString name="AE">
          -70 callgsubr
          endchar
        </CharString>
        <CharString name="AEacute">
          -70 callgsubr
          466 588 -101 callsubr
        </CharString>
        <CharString name="Aacute">
          -107 callgsubr
          195 559 -101 callsubr
        </CharString>
        <CharString name="Abreve">
          -107 callgsubr
          16 650 -85 callsubr
        </CharString>
        <CharString name="Acircumflex">
          -107 callgsubr
          139 477 -104 callgsubr
        </CharString>
        <CharString name="Adieresis">
          -107 callgsubr
          -39 499 -93 callgsubr
        </CharString>
        <CharString name="Agrave">
          -107 callgsubr
          -46 501 -72 callsubr
        </CharString>
        <CharString name="Amacron">
          -107 callgsubr
          80 469 -74 callsubr
        </CharString>
        <CharString name="Aogonek">
          96 897 -52 callgsubr
          24 16 32 18 26 hvcurveto
          7 41 42 3 44 -36 callsubr
          -73 callgsubr
          rrcurveto
          -33 callgsubr
          -99 callgsubr
          35 18 36 14 37 10 rrcurveto
          -34 -31 -17 -35 -30 -28 callgsubr
          -375 458 -65 callgsubr
          endchar
        </CharString>
        <CharString name="Aring">
          -107 callgsubr
          34 564 -53 callgsubr
        </CharString>
        <CharString name="Atilde">
          -107 callgsubr
          90 544 -98 callgsubr
        </CharString>
        <CharString name="B">
          25 792 127 rmoveto
          4 1 125 -107 62 vhcurveto
          75 68 50 95 102 vvcurveto
          16 -1 18 -3 18 vhcurveto
          -14 -11 -15 -11 -14 -8 rrcurveto
          134 -65 -230 10 -120 hhcurveto
          -94 -91 -39 callgsubr
          -16 vlineto
          -40 -2 -39 -3 -40 vhcurveto
          -41 7 -39 10 -36 11 24 -31 38 -33 47 -30 -15 -120 -29 -118 -39 -117 23 8 23 8 22 6 -12 -22 rcurveline
          -25 76 103 -16 102 hhcurveto
          196 196 58 162 3 hvcurveto
          -363 86 rmoveto
          61 61 17 30 55 hvcurveto
          4 -13 2 -13 -11 vvcurveto
          -88 -92 -30 -68 -27 -30 3 10 -33 vhcurveto
          -1 34 -1 33 34 vvcurveto
          -4 23 23 -2 23 hhcurveto
          -64 339 rmoveto
          7 54 12 3 34 hhcurveto
          40 35 -8 -16 28 hvcurveto
          -44 -7 -13 -109 -58 -48 -93 -14 rlinecurve
          1 64 1 64 2 64 rrcurveto
          endchar
        </CharString>
        <CharString name="C">
          -84 callsubr
          endchar
        </CharString>
        <CharString name="Cacute">
          -84 callsubr
          -246 605 -101 callsubr
        </CharString>
        <CharString name="Ccaron">
          -84 callsubr
          -224 680 -98 callsubr
        </CharString>
        <CharString name="Ccedilla">
          4 562 -8 callsubr
          6 22 135 3 178 49 31 236 rlinecurve
          -100 -105 -107 -19 -67 hhcurveto
          -117 -91 71 122 -22 callgsubr
          -25 -6 -8 callgsubr
          44 146 68 120 -83 callsubr
          41 -256 149 -133 219 -9 -29 -59 rcurveline
          -55 callgsubr
        </CharString>
        <CharString name="Ccircumflex">
          -84 callsubr
          -224 570 -104 callgsubr
        </CharString>
        <CharString name="Cdotaccent">
          -84 callsubr
          -311 593 -54 callgsubr
        </CharString>
        <CharString name="D">
          -44 callsubr
          endchar
        </CharString>
        <CharString name="Dcaron">
          -44 callsubr
          -20 567 -98 callsubr
        </CharString>
        <CharString name="Dcroat">
          -56 callgsubr
        </CharString>
        <CharString name="E">
          -106 callgsubr
          endchar
        </CharString>
        <CharString name="Eacute">
          -106 callgsubr
          209 839 -101 callsubr
        </CharString>
        <CharString name="Ebreve">
          -106 callgsubr
          121 934 -85 callsubr
        </CharString>
        <CharString name="Ecaron">
          -106 callgsubr
          201 917 -98 callsubr
        </CharString>
        <CharString name="Ecircumflex">
          -106 callgsubr
          195 788 -104 callgsubr
        </CharString>
        <CharString name="Edieresis">
          -106 callgsubr
          8 818 -93 callgsubr
        </CharString>
        <CharString name="Edotaccent">
          -106 callgsubr
          114 831 -54 callgsubr
        </CharString>
        <CharString name="Egrave">
          -106 callgsubr
          96 803 -72 callsubr
        </CharString>
        <CharString name="Emacron">
          -106 callgsubr
          184 760 -74 callsubr
        </CharString>
        <CharString name="Eng">
          86 875 -11 rmoveto
          -19 -9 -19 -9 -19 -8 rrcurveto
          -25 91 -23 145 72 -14 callgsubr
          -86 callsubr
          155 -184 90 -255 vhcurveto
          -6 -40 -40 -3 -41 -26 callgsubr
          endchar
        </CharString>
        <CharString name="Eogonek">
          -57 732 -52 callgsubr
          21 13 28 15 23 hvcurveto
          37 -8 38 -8 37 -10 -106 callsubr
          -19 callgsubr
          73 -8 73 -10 72 -14 rrcurveto
          -45 -35 -23 -41 -35 -23 callgsubr
        </CharString>
        <CharString name="Eth">
          -56 callgsubr
        </CharString>
        <CharString name="Euro">
          -34 735 273 rmoveto
          -70 -74 -75 -14 -47 hhcurveto
          -81 -64 50 85 9 1 10 1 9 hvcurveto
          -17 -5 -18 -5 -18 -2 rrcurveto
          83 30 103 47 84 hhcurveto
          45 54 -12 -40 54 hvcurveto
          -3 21 -2 22 22 vvcurveto
          41 6 42 14 41 vhcurveto
          11 -58 -50 4 -44 hhcurveto
          -147 -123 -56 -108 -58 hvcurveto
          -45 -2 -41 7 -38 15 -3 -33 -23 -61 -16 -32 38 13 49 3 49 -1 -2 -8 -1 -9 -1 -8 -12 2 -11 3 -11 3 3 -18 3 -16 4 -16 -44 -1 -41 7 -37 15 rrcurveto
          -4 -34 -22 -61 -18 -31 57 19 82 -3 66 -5 rrcurveto
          -90 53 89 -45 114 hhcurveto
          95 132 32 170 23 hvcurveto
          endchar
        </CharString>
        <CharString name="F">
          -68 344 hmoveto
          -15 103 -10 104 -4 103 70 -33 66 -38 61 -45 rrcurveto
          -4 33 -3 33 32 vvcurveto
          39 4 39 8 39 vhcurveto
          -14 -14 1 -14 hhcurveto
          -55 -54 -5 -8 -54 hvcurveto
          53 vlineto
          36 0 36 2 37 vhcurveto
          142 -34 139 -44 137 -55 rrcurveto
          -6 41 -2 41 41 vvcurveto
          49 4 50 8 50 vhcurveto
          10 -65 -64 4 -64 hhcurveto
          -74 -74 -7 -12 -74 hvcurveto
          2 18 rlineto
          -2 -28 -27 -2 -28 hhcurveto
          -46 -46 4 6 -45 hvcurveto
          -25 1 -26 -25 vvcurveto
          -29 -9 -29 -10 -29 -10 87 -12 rcurveline
          -1 -215 -18 -218 -51 -219 rrcurveto
          35 97 88 17 100 hhcurveto
          endchar
        </CharString>
        <CharString name="G">
          -95 callgsubr
          endchar
        </CharString>
        <CharString name="Gbreve">
          -95 callgsubr
          -300 701 -85 callsubr
        </CharString>
        <CharString name="Gcircumflex">
          -95 callgsubr
          -219 568 -104 callgsubr
        </CharString>
        <CharString name="Gcommaaccent">
          -95 callgsubr
          -277 -361 -80 callsubr
        </CharString>
        <CharString name="Gdotaccent">
          -95 callgsubr
          -306 595 -54 callgsubr
        </CharString>
        <CharString name="H">
          -50 callgsubr
          endchar
        </CharString>
        <CharString name="Hbar">
          -47 callsubr
          4 33 6 33 9 33 38 11 39 12 44 14 -31 -4 -39 -3 -43 -2 14 50 19 49 24 49 -4 callgsubr
          -17 -66 -12 -66 -9 -65 rrcurveto
          -69 -72 2 3 -67 hvcurveto
          -4 120 -95 1 -77 16 -86 25 rlinecurve
          11 -48 8 -46 6 -46 -29 5 -26 3 callgsubr
          92 4 rcurveline
          -1 -151 -31 -144 -55 -138 rrcurveto
          -5 callsubr
          202 481 rmoveto
          -3 -28 -2 -28 -2 -27 -62 -10 -62 -8 -64 -6 rrcurveto
          25 0 26 -1 25 vhcurveto
          65 7 63 10 68 14 rrcurveto
          endchar
        </CharString>
        <CharString name="Hcircumflex">
          -50 callgsubr
          281 792 -104 callgsubr
        </CharString>
        <CharString name="I">
          -90 callgsubr
          endchar
        </CharString>
        <CharString name="IJ">
          209 -90 callgsubr
          701 -465 -53 callsubr
          endchar
        </CharString>
        <CharString name="Iacute">
          -90 callgsubr
          60 97 -101 callsubr
        </CharString>
        <CharString name="Ibreve">
          -90 callgsubr
          -51 178 -85 callsubr
        </CharString>
        <CharString name="Icircumflex">
          -90 callgsubr
          28 52 -104 callgsubr
        </CharString>
        <CharString name="Idieresis">
          -90 callgsubr
          -159 78 -93 callgsubr
        </CharString>
        <CharString name="Idotaccent">
          -90 callgsubr
          -57 86 -54 callgsubr
        </CharString>
        <CharString name="Igrave">
          -90 callgsubr
          -103 46 -72 callsubr
        </CharString>
        <CharString name="Imacron">
          -90 callgsubr
          13 39 -74 callsubr
        </CharString>
        <CharString name="Iogonek">
          319 -52 callgsubr
          30 25 43 23 26 hvcurveto
          22 hlineto
          -60 callsubr
          -63 callgsubr
          43 10 41 6 40 3 rrcurveto
          -61 -38 -30 -48 -41 -23 callgsubr
        </CharString>
        <CharString name="Itilde">
          -90 callgsubr
          32 124 -98 callgsubr
        </CharString>
        <CharString name="J">
          -31 callsubr
          endchar
        </CharString>
        <CharString name="Jcircumflex">
          -31 callsubr
          -41 553 -104 callgsubr
        </CharString>
        <CharString name="K">
          -36 callgsubr
          endchar
        </CharString>
        <CharString name="Kcommaaccent">
          -36 callgsubr
          171 -763 -80 callsubr
        </CharString>
        <CharString name="L">
          -107 -77 callgsubr
          endchar
        </CharString>
        <CharString name="Lacute">
          -107 -77 callgsubr
          -286 864 -101 callsubr
        </CharString>
        <CharString name="Lcaron">
          -107 -77 callgsubr
          -296 904 -80 callsubr
        </CharString>
        <CharString name="Lcommaaccent">
          -107 -77 callgsubr
          -249 -49 -80 callsubr
        </CharString>
        <CharString name="Ldot">
          230 -77 callgsubr
          293 336 -32 callgsubr
        </CharString>
        <CharString name="Lslash">
          -104 712 -38 callsubr
          11 47 9 47 8 47 49 10 45 7 32 6 -21 44 -17 86 6 46 -24 -14 -24 -14 -26 -12 rrcurveto
          8 87 4 87 88 -21 callgsubr
          20 -99 15 -100 5 -101 -39 -5 -37 -1 -35 4 20 -45 14 -88 1 -47 20 13 26 13 31 11 -3 -65 -7 -66 -11 -66 -41 callsubr
          endchar
        </CharString>
        <CharString name="M">
          266 1005 696 rmoveto
          -60 -126 0 54 -91 hvcurveto
          -31 -162 -63 -144 -76 -213 rrcurveto
          -73 288 -127 218 0 vvcurveto
          -38 -84 -77 -11 -62 hhcurveto
          -70 -52 14 7 -23 hvcurveto
          70 -58 63 -56 56 -57 rrcurveto
          2 -24 1 -24 -23 vvcurveto
          -184 -63 -152 -117 -124 vhcurveto
          3 27 27 2 26 hhcurveto
          79 73 -15 -31 69 hvcurveto
          36 103 21 107 6 109 49 -97 32 -107 11 -125 rrcurveto
          26 82 100 0 16 hhcurveto
          12 116 34 99 47 93 6 -111 21 -108 37 -105 rrcurveto
          31 69 51 15 68 hhcurveto
          22 25 -2 -3 27 hvcurveto
          -69 77 -78 116 173 vvcurveto
          91 21 106 56 126 vhcurveto
          endchar
        </CharString>
        <CharString name="N">
          -79 callgsubr
          endchar
        </CharString>
        <CharString name="Nacute">
          -79 callgsubr
          -274 142 -101 callsubr
        </CharString>
        <CharString name="Ncaron">
          -79 callgsubr
          -287 216 -98 callsubr
        </CharString>
        <CharString name="Ncommaaccent">
          -79 callgsubr
          -395 -729 -80 callsubr
        </CharString>
        <CharString name="Ntilde">
          91 918 -91 callsubr
          -293 177 -98 callgsubr
        </CharString>
        <CharString name="O">
          -103 callgsubr
          endchar
        </CharString>
        <CharString name="OE">
          517 915 2 rmoveto
          -1 4 -1 5 4 vvcurveto
          126 -13 124 -23 122 -31 -104 callsubr
          -78 18 -19 6 -20 6 rrcurveto
          -3 1 -2 -3 vvcurveto
          3 -21 -21 3 -16 -75 callsubr
          78 78 11 23 71 hvcurveto
          -5 -19 -19 callsubr
          rlinecurve
          -247 385 -78 callsubr
          12 23 13 21 12 21 rrcurveto
          48 -26 32 -44 -70 vvcurveto
          endchar
        </CharString>
        <CharString name="Oacute">
          -103 callgsubr
          -26 452 -101 callsubr
        </CharString>
        <CharString name="Obreve">
          -103 callgsubr
          -127 538 -85 callsubr
        </CharString>
        <CharString name="Ocircumflex">
          -103 callgsubr
          -46 398 -104 callgsubr
        </CharString>
        <CharString name="Odieresis">
          -103 callgsubr
          -234 419 -93 callgsubr
        </CharString>
        <CharString name="Ograve">
          -103 callgsubr
          -184 403 -72 callsubr
        </CharString>
        <CharString name="Ohungarumlaut">
          -103 callgsubr
          -134 464 -61 callsubr
        </CharString>
        <CharString name="Omacron">
          -103 callgsubr
          -64 356 -74 callsubr
        </CharString>
        <CharString name="Oslash">
          -49 callsubr
          endchar
        </CharString>
        <CharString name="Oslashacute">
          -49 callsubr
          -45 381 -101 callsubr
        </CharString>
        <CharString name="Otilde">
          -103 callgsubr
          -44 467 -98 callgsubr
        </CharString>
        <CharString name="P">
          30 857 594 rmoveto
          -82 callgsubr
          231 185 217 211 32 hvcurveto
          -362 -33 -48 callsubr
          endchar
        </CharString>
        <CharString name="Q">
          102 -78 callgsubr
          30 31 2 4 30 hvcurveto
          81 -136 106 -70 0 vvcurveto
          137 59 133 52 -3 hhcurveto
          -78 4 -83 18 -74 25 rrcurveto
          153 52 119 110 183 vvcurveto
          -21 callsubr
          vhcurveto
          -86 callgsubr
          24 10 23 rrcurveto
          64 -34 28 -56 -57 vvcurveto
          endchar
        </CharString>
        <CharString name="R">
          -94 callsubr
          endchar
        </CharString>
        <CharString name="Racute">
          -94 callsubr
          111 313 -101 callsubr
        </CharString>
        <CharString name="Rcaron">
          -94 callsubr
          105 371 -98 callsubr
        </CharString>
        <CharString name="Rcommaaccent">
          -94 callsubr
          47 -602 -80 callsubr
        </CharString>
        <CharString name="S">
          -85 callgsubr
          endchar
        </CharString>
        <CharString name="Sacute">
          -85 callgsubr
          -242 529 -101 callsubr
        </CharString>
        <CharString name="Scaron">
          -85 callgsubr
          -225 590 -98 callsubr
        </CharString>
        <CharString name="Scedilla">
          4 516 -8 callsubr
          6 24 rlineto
          193 3 197 134 201 vvcurveto
          13 0 14 -2 14 vhcurveto
          -89 callgsubr
          hhcurveto
          42 47 -5 -2 50 hvcurveto
          -30 -60 rlineto
          -55 callgsubr
        </CharString>
        <CharString name="Scircumflex">
          -85 callgsubr
          -222 475 -104 callgsubr
        </CharString>
        <CharString name="T">
          -66 callgsubr
          endchar
        </CharString>
        <CharString name="Tbar">
          -125 593 256 -10 callgsubr
          -43 -14 -54 -10 -57 -6 -5 48 -2 48 -1 48 -64 callsubr
          -16 -47 -13 -47 -11 -48 -69 3 -64 10 -46 16 rrcurveto
          -9 callgsubr
          32 12 57 6 64 3 rrcurveto
          -11 -78 -4 -81 -84 -18 callsubr
          -27 87 -19 87 -14 87 57 -2 50 -4 30 -2 rrcurveto
          endchar
        </CharString>
        <CharString name="Tcaron">
          -66 callgsubr
          -48 904 -98 callsubr
        </CharString>
        <CharString name="Tcommaaccent">
          -66 callgsubr
          -56 -79 -80 callsubr
        </CharString>
        <CharString name="Thorn">
          36 373 773 rmoveto
          -82 -45 -81 -22 -81 1 6 -25 4 -25 4 -26 -40 -4 -43 -5 -45 -7 42 -77 11 -86 -27 -99 34 17 38 15 38 12 -3 -56 -7 -57 -9 -56 -33 7 -33 8 -30 9 rrcurveto
          16 -20 30 -30 41 -30 -17 -87 -21 -82 -23 -69 116 41 103 17 87 -12 -3 95 rcurveline
          58 -7 64 4 69 20 rrcurveto
          0 270 77 33 322 vhcurveto
          -16 -13 -16 -10 -17 -10 rrcurveto
          1 vlineto
          -7 58 -64 73 -116 33 rrcurveto
          0 -83 23 -174 -1 vhcurveto
          2 45 2 43 3 40 rrcurveto
          -6 -326 rmoveto
          189 26 42 -22 42 -49 rrcurveto
          -12 callsubr
          -110 -79 -48 -102 -13 -1 75 0 78 1 78 rrcurveto
          2 1 3 0 0 vvcurveto
          endchar
        </CharString>
        <CharString name="U">
          -103 callsubr
          endchar
        </CharString>
        <CharString name="Uacute">
          -103 callsubr
          -215 146 -101 callsubr
        </CharString>
        <CharString name="Ubreve">
          -103 callsubr
          -324 241 -85 callsubr
        </CharString>
        <CharString name="Ucircumflex">
          -103 callsubr
          -240 101 -104 callgsubr
        </CharString>
        <CharString name="Udieresis">
          -103 callsubr
          -428 125 -93 callgsubr
        </CharString>
        <CharString name="Ugrave">
          -103 callsubr
          -375 103 -72 callsubr
        </CharString>
        <CharString name="Uhungarumlaut">
          -103 callsubr
          -310 175 -61 callsubr
        </CharString>
        <CharString name="Umacron">
          -103 callsubr
          -261 72 -74 callsubr
        </CharString>
        <CharString name="Uogonek">
          63 539 -52 callgsubr
          19 11 25 13 23 hvcurveto
          291 27 153 255 430 vvcurveto
          -100 callgsubr
          -22 -22 -14 -1 -1 45 -11 42 -6 39 -1 rrcurveto
          -33 -31 -16 -33 -30 -23 callgsubr
        </CharString>
        <CharString name="Uring">
          -103 callsubr
          -311 158 -53 callgsubr
        </CharString>
        <CharString name="Utilde">
          -103 callsubr
          -241 185 -98 callgsubr
        </CharString>
        <CharString name="V">
          -14 828 693 rmoveto
          -6 -50 -51 -4 -50 hhcurveto
          -60 -60 5 10 -61 hvcurveto
          -153 -29 -151 -71 -146 vhcurveto
          -63 148 -17 147 -14 168 rrcurveto
          -32 -65 -81 -11 -80 hhcurveto
          -37 -37 2 4 -35 hvcurveto
          144 -190 103 -273 48 -220 rrcurveto
          18 62 63 9 63 hhcurveto
          30 30 -2 -4 31 hvcurveto
          40 248 103 231 144 202 rrcurveto
          endchar
        </CharString>
        <CharString name="W">
          -92 callgsubr
          endchar
        </CharString>
        <CharString name="Wacute">
          -92 callgsubr
          -321 98 -101 callsubr
        </CharString>
        <CharString name="Wcircumflex">
          -92 callgsubr
          -353 51 -104 callgsubr
        </CharString>
        <CharString name="Wdieresis">
          -92 callgsubr
          -531 51 -93 callgsubr
        </CharString>
        <CharString name="Wgrave">
          -92 callgsubr
          -479 59 -72 callsubr
        </CharString>
        <CharString name="X">
          62 898 684 rmoveto
          -6 -50 -50 -4 -47 hhcurveto
          -61 -59 6 11 -56 hvcurveto
          -41 -62 -43 -62 -46 -60 -51 68 -47 70 -44 73 -98 -35 -105 -15 -110 -3 114 -99 108 -106 101 -115 -106 -124 -115 -119 -123 -116 rrcurveto
          8 61 59 4 57 hhcurveto
          46 44 -2 -5 44 hvcurveto
          51 69 53 67 53 65 49 -65 47 -67 44 -71 rrcurveto
          34 85 94 18 113 hhcurveto
          -104 99 -100 101 -93 108 106 118 109 110 111 107 rrcurveto
          endchar
        </CharString>
        <CharString name="Y">
          -82 callsubr
          endchar
        </CharString>
        <CharString name="Yacute">
          -82 callsubr
          -301 81 -101 callsubr
        </CharString>
        <CharString name="Ycircumflex">
          -82 callsubr
          -346 50 -104 callgsubr
        </CharString>
        <CharString name="Ydieresis">
          -82 callsubr
          -526 82 -93 callgsubr
        </CharString>
        <CharString name="Ygrave">
          -82 callsubr
          -465 26 -72 callsubr
        </CharString>
        <CharString name="Z">
          -77 callsubr
          endchar
        </CharString>
        <CharString name="Zacute">
          -77 callsubr
          -159 877 -101 callsubr
        </CharString>
        <CharString name="Zcaron">
          -77 callsubr
          -194 936 -98 callsubr
        </CharString>
        <CharString name="Zdotaccent">
          -77 callsubr
          -270 862 -54 callgsubr
        </CharString>
        <CharString name="a">
          -107 callsubr
          endchar
        </CharString>
        <CharString name="aacute">
          -107 callsubr
          148 481 -101 callsubr
        </CharString>
        <CharString name="abreve">
          -107 callsubr
          35 564 -85 callsubr
        </CharString>
        <CharString name="acircumflex">
          -107 callsubr
          142 429 -104 callgsubr
        </CharString>
        <CharString name="acute">
          -583 227 613 -101 callsubr
        </CharString>
        <CharString name="adieresis">
          -107 callsubr
          -44 445 -93 callgsubr
        </CharString>
        <CharString name="ae">
          -69 callgsubr
          endchar
        </CharString>
        <CharString name="aeacute">
          -69 callgsubr
          405 487 -101 callsubr
        </CharString>
        <CharString name="agrave">
          -107 callsubr
          4 423 -72 callsubr
        </CharString>
        <CharString name="amacron">
          -107 callsubr
          99 375 -74 callsubr
        </CharString>
        <CharString name="ampersand">
          -210 12 267 rmoveto
          48 -85 73 -56 102 -24 -3 -86 -8 -85 -11 -74 rrcurveto
          31 50 63 14 44 hhcurveto
          10 10 0 -5 23 hvcurveto
          -13 58 -9 65 -5 69 54 1 76 7 57 12 rrcurveto
          -25 49 -12 55 66 vvcurveto
          -93 -39 -109 -19 -78 -2 rrcurveto
          7 vlineto
          82 111 7 8 vhcurveto
          3 75 rlineto
          -118 3 -20 70 38 vvcurveto
          10 vlineto
          97 -7 98 -22 95 -65 12 69 24 58 35 51 -57 21 -85 16 -69 6 7 72 11 73 17 67 rrcurveto
          -41 -54 -66 -16 -45 hhcurveto
          -13 -17 2 3 -19 hvcurveto
          10 -48 7 -57 4 -62 -108 -21 -91 -55 -41 -79 55 13 rcurveline
          4 -77 103 -52 0 vvcurveto
          -9 -5 -84 -45 -3 -60 -15 5 -16 6 -15 6 rrcurveto
          endchar
        </CharString>
        <CharString name="aogonek">
          14 807 -52 callgsubr
          24 16 33 18 25 hvcurveto
          8 41 42 3 44 -35 callgsubr
          -70 callsubr
          rrcurveto
          -33 callsubr
          -97 callgsubr
          31 14 31 12 30 9 rrcurveto
          -34 -32 -17 -34 -31 -28 callgsubr
          -345 398 -66 callsubr
          endchar
        </CharString>
        <CharString name="approxequal">
          -262 464 573 rmoveto
          -54 callsubr
          -246 vmoveto
          -54 callsubr
          endchar
        </CharString>
        <CharString name="aring">
          -107 callsubr
          58 487 -53 callgsubr
        </CharString>
        <CharString name="asciicircum">
          -310 500 310 rmoveto
          -80 117 -51 101 136 vvcurveto
          -9 -37 -62 -4 -56 hhcurveto
          -37 -34 2 4 -20 hvcurveto
          -10 -188 -51 -88 -62 -96 rrcurveto
          4 16 24 1 26 hhcurveto
          44 50 -5 -12 24 hvcurveto
          10 83 14 67 36 70 35 -83 18 -40 21 -80 rrcurveto
          12 31 72 10 48 hhcurveto
          12 11 -1 -1 8 hvcurveto
          endchar
        </CharString>
        <CharString name="asciitilde">
          -289 454 489 rmoveto
          -54 callsubr
          endchar
        </CharString>
        <CharString name="asterisk">
          -290 193 464 rmoveto
          -53 -53 -94 -45 -7 callgsubr
          97 -21 68 -69 vhcurveto
          0 12 125 35 40 vhcurveto
          43 -42 28 -116 -7 callgsubr
          78 130 59 28 vhcurveto
          0 -68 11 -64 27 vhcurveto
          50 12 65 12 31 -2 rrcurveto
          0 -47 89 -12 66 vhcurveto
          -18 -18 -43 -52 -52 -38 9 51 14 72 17 30 -69 -18 -70 -1 -71 17 rrcurveto
          0 53 -65 19 -93 vhcurveto
          -60 33 -57 64 4 vvcurveto
          5 -12 -68 -45 -112 vhcurveto
          endchar
        </CharString>
        <CharString name="at">
          201 792 226 rmoveto
          -18 29 -15 37 -13 43 -18 -13 -18 -11 -18 -10 -22 51 -18 54 -16 56 -23 -4 -21 -4 -20 -1 8 16 8 15 9 15 -28 -12 -25 -16 -22 -19 -40 2 -41 7 -40 11 rrcurveto
          19 -28 22 -40 11 -24 -25 -32 -21 -35 -19 -35 -16 6 -16 8 -17 8 9 -19 11 -17 12 -15 -22 -34 -44 -63 -56 -56 rrcurveto
          11 36 31 4 26 hhcurveto
          64 54 -29 0 hvcurveto
          5 34 6 32 7 31 rrcurveto
          -7 27 28 -4 30 hhcurveto
          17 18 1 2 17 hvcurveto
          8 -27 4 -24 -20 vvcurveto
          -5 0 -5 -1 -5 vhcurveto
          -3 -20 -21 -2 -22 hhcurveto
          175 -73 247 101 248 vvcurveto
          180 -153 148 -301 -107 -73 -26 0 vhcurveto
          11 -10 14 -17 13 -21 -162 -23 -171 -112 -16 -218 rrcurveto
          -179 -14 128 -220 301 hhcurveto
          107 73 26 0 hvcurveto
          -29 24 -46 82 30 vvcurveto
          -15 -44 -38 -5 -32 hhcurveto
          -179 -92 159 112 -2 hvcurveto
          -2 158 104 102 135 41 rrcurveto
          9 -20 7 -19 -11 vvcurveto
          15 44 38 5 32 hhcurveto
          216 102 -102 -112 -82 -31 -62 -52 -41 hvcurveto
          -13 19 -11 20 -12 21 18 6 17 8 18 9 rrcurveto
          -210 33 rmoveto
          -5 -21 -21 -2 -21 hhcurveto
          -8 -7 0 1 -8 hvcurveto
          11 37 11 35 12 33 20 -34 18 -33 14 -32 rrcurveto
          endchar
        </CharString>
        <CharString name="atilde">
          -107 callsubr
          141 501 -98 callgsubr
        </CharString>
        <CharString name="b">
          -36 727 102 rmoveto
          3 0 98 -98 50 vhcurveto
          68 55 46 76 82 vvcurveto
          13 -1 15 -2 14 vhcurveto
          -40 -22 rlineto
          105 -60 -205 8 -108 hhcurveto
          -84 -81 -9 callsubr
          -43 -45 vvcurveto
          -28 -5 -30 -10 -33 vhcurveto
          33 14 35 13 36 12 rrcurveto
          -8 vlineto
          -31 -2 -30 -2 -31 vhcurveto
          -36 7 -35 8 -33 9 22 -25 34 -28 42 -24 -14 -98 -26 -97 -35 -96 21 7 21 6 20 6 -8 -14 rcurveline
          -21 69 93 -12 92 hhcurveto
          177 178 46 130 3 hvcurveto
          -330 68 rmoveto
          51 51 11 21 46 hvcurveto
          2 -9 1 -8 -7 vvcurveto
          -70 -75 -24 -56 -20 -23 2 8 -26 vhcurveto
          -1 26 -1 26 27 vvcurveto
          -2 17 17 -1 17 hhcurveto
          32 280 rmoveto
          32 28 -7 -13 24 hvcurveto
          -42 -6 -11 -82 -44 -39 -70 -13 rlinecurve
          1 51 1 52 2 52 rrcurveto
          3 27 26 2 26 hhcurveto
          endchar
        </CharString>
        <CharString name="backslash">
          -165 24 686 rmoveto
          159 -320 210 -283 236 -149 -210 295 -109 257 -40 262 -56 -47 -111 -21 -79 6 rrcurveto
          endchar
        </CharString>
        <CharString name="bar">
          -493 274 -64 rmoveto
          -55 260 8 402 58 273 -66 -55 -118 -13 -59 13 49 -249 -11 -425 -33 -253 8 callsubr
          rrcurveto
          endchar
        </CharString>
        <CharString name="braceleft">
          -340 484 811 rmoveto
          -278 37 -126 -135 -112 -59 31 -52 -40 vvcurveto
          -56 -53 -41 -67 -12 vhcurveto
          43 -21 81 -9 -82 -38 -37 -54 -66 vvcurveto
          -168 253 -56 153 41 vhcurveto
          -113 79 -56 30 129 49 30 45 43 vvcurveto
          48 -45 30 -37 9 vhcurveto
          74 11 12 46 30 47 -47 66 47 vvcurveto
          80 62 97 120 37 vhcurveto
          endchar
        </CharString>
        <CharString name="braceright">
          -340 -14 811 rmoveto
          120 -37 62 -97 -80 -47 -47 -66 -47 vvcurveto
          -30 12 -46 74 -11 vhcurveto
          -37 -9 -45 -30 -48 -43 30 -45 -49 vvcurveto
          -129 -56 -30 -113 -79 vhcurveto
          153 -41 253 56 168 66 -37 54 38 vvcurveto
          82 81 9 43 21 vhcurveto
          -67 12 -53 41 56 40 31 52 59 vvcurveto
          112 -126 135 -278 -37 vhcurveto
          endchar
        </CharString>
        <CharString name="bracketleft">
          -351 442 54 rmoveto
          -54 -17 -55 -8 -50 6 -1 251 -4 98 37 285 rrcurveto
          0 66 -3 57 -21 vhcurveto
          -15 48 -2 97 14 45 rrcurveto
          -37 -111 -151 -3 -111 hhcurveto
          22 -261 -2 -399 -48 -231 117 11 167 -1 107 -38 -2 48 4 86 15 44 rrcurveto
          endchar
        </CharString>
        <CharString name="bracketright">
          -351 17 54 rmoveto
          15 -44 4 -86 -2 -48 107 38 167 1 117 -11 -48 231 -2 399 22 261 rrcurveto
          -111 -151 3 37 -111 hvcurveto
          14 -45 -2 -97 -15 -48 rrcurveto
          57 21 66 3 0 vvcurveto
          37 -285 -4 -98 -1 -251 -50 -6 -55 8 -54 17 rrcurveto
          endchar
        </CharString>
        <CharString name="breve">
          -554 223 701 -85 callsubr
        </CharString>
        <CharString name="brokenbar">
          -488 242 467 rmoveto
          5 144 16 142 25 118 rrcurveto
          -42 -51 -81 -18 -62 hhcurveto
          -18 -17 2 3 -14 hvcurveto
          19 -99 10 -126 3 -133 rrcurveto
          10 39 39 2 30 hhcurveto
          34 23 -3 0 hvcurveto
          -164 -134 rmoveto
          -2 -162 -10 -160 -16 -122 4 callsubr
          -24 114 -12 140 -1 145 rrcurveto
          0 -34 -9 -51 -22 -27 2 5 -28 vhcurveto
          endchar
        </CharString>
        <CharString name="bullet">
          -404 351 373 rmoveto
          77 -82 31 -66 -64 -83 -26 -90 -77 85 -22 62 65 80 25 82 3 vhcurveto
          endchar
        </CharString>
        <CharString name="c">
          -81 callsubr
          endchar
        </CharString>
        <CharString name="cacute">
          -81 callsubr
          -204 528 -101 callsubr
        </CharString>
        <CharString name="caron">
          -478 332 646 -98 callsubr
        </CharString>
        <CharString name="ccaron">
          -81 callsubr
          -187 590 -98 callsubr
        </CharString>
        <CharString name="ccedilla">
          -45 531 -8 callsubr
          8 31 122 5 168 73 21 153 rlinecurve
          -80 -109 -91 -15 -56 hhcurveto
          -97 -76 56 98 -46 callgsubr
          122 52 100 -83 callgsubr
          37 -208 135 -108 199 -7 -34 -68 rcurveline
          -55 callgsubr
        </CharString>
        <CharString name="ccircumflex">
          -81 callsubr
          -187 472 -104 callgsubr
        </CharString>
        <CharString name="cdotaccent">
          -81 callsubr
          -274 507 -54 callgsubr
        </CharString>
        <CharString name="cedilla">
          -591 219 -8 callsubr
          30 114 rlineto
          -16 hlineto
          -76 -150 rlineto
          -55 callgsubr
        </CharString>
        <CharString name="cent">
          -194 577 267 rmoveto
          -70 -73 -75 -13 -47 hhcurveto
          -82 -64 50 85 9 1 9 1 10 hvcurveto
          -17 -5 -17 -4 -18 -3 rrcurveto
          82 30 103 48 84 hhcurveto
          45 54 -12 -41 53 hvcurveto
          -3 22 -1 22 21 vvcurveto
          42 6 42 13 41 vhcurveto
          10 -57 -51 5 -44 hhcurveto
          -14 -13 -1 -1 -13 hvcurveto
          6 70 9 66 1 callsubr
          -52 7 -62 3 -67 -110 -40 -76 -86 -12 -128 -12 3 -11 2 -11 4 25 -158 84 -91 124 -24 -3 -82 -6 -78 -8 -63 4 callgsubr
          55 -7 64 -4 68 87 10 96 45 19 143 rrcurveto
          endchar
        </CharString>
        <CharString name="circumflex">
          -478 332 540 -104 callgsubr
        </CharString>
        <CharString name="colon">
          -448 312 75 -40 callsubr
          307 vmoveto
          -2 callgsubr
        </CharString>
        <CharString name="comma">
          -10 callsubr
        </CharString>
        <CharString name="copyright">
          -37 callgsubr
          381 1 rmoveto
          -33 -46 -38 -6 -24 hhcurveto
          -41 -31 23 41 4 0 6 1 5 hvcurveto
          -28 -7 rlineto
          40 17 52 22 42 hhcurveto
          21 30 -7 -24 35 hvcurveto
          -4 16 0 11 10 vvcurveto
          21 2 20 7 19 vhcurveto
          5 -33 -27 2 -24 hhcurveto
          -103 -82 -45 -88 -10 hvcurveto
          -6 1 -6 2 -6 2 rrcurveto
          -91 17 60 -46 89 hhcurveto
          51 75 31 66 10 hvcurveto
          endchar
        </CharString>
        <CharString name="currency">
          -242 378 352 -2 callsubr
          150 112 rmoveto
          -42 25 -62 59 -21 41 -13 -25 -16 -27 -21 -29 rrcurveto
          10 -19 -22 6 -22 hhcurveto
          -25 -23 -7 -11 -20 hvcurveto
          -30 35 -22 30 -10 20 -25 -42 -59 -62 -41 -21 32 -16 37 -25 37 -30 rrcurveto
          -3 -15 -2 -15 -16 vvcurveto
          -22 4 -20 6 -19 vhcurveto
          -37 -31 -37 -26 -32 -15 42 -25 61 -62 26 -38 11 24 23 33 31 37 rrcurveto
          -7 17 19 -4 20 hhcurveto
          20 19 5 8 18 hvcurveto
          26 -34 21 -32 14 -28 25 42 62 61 38 26 -25 11 -35 25 -38 33 rrcurveto
          5 18 4 20 20 vvcurveto
          15 -2 15 -3 14 vhcurveto
          36 32 32 26 21 13 rrcurveto
          endchar
        </CharString>
        <CharString name="d">
          -44 callgsubr
          endchar
        </CharString>
        <CharString name="dagger">
          -277 506 515 rmoveto
          -1 callgsubr
          -7 callsubr
          rrcurveto
          33 13 57 6 63 2 9 -220 -12 -247 -22 -170 8 callsubr
          -35 162 -9 218 11 208 64 -3 56 -4 34 -2 rrcurveto
          endchar
        </CharString>
        <CharString name="daggerdbl">
          -263 513 41 rmoveto
          -26 callsubr
          -44 -14 -53 -11 -56 -5 -7 108 0 116 6 113 64 -3 56 -4 34 -2 -1 callgsubr
          rrcurveto
          -7 callsubr
          33 13 57 6 63 2 4 -112 0 -119 -5 -112 -59 4 -54 9 -42 15 rrcurveto
          -25 callgsubr
          32 12 53 6 59 2 -4 -58 -6 -55 -6 -49 8 callsubr
          -8 36 -6 37 -5 40 58 -2 50 -4 32 -2 rrcurveto
          endchar
        </CharString>
        <CharString name="dcaron">
          -44 callgsubr
          -17 501 -98 callsubr
        </CharString>
        <CharString name="dcroat">
          -56 callsubr
        </CharString>
        <CharString name="degree">
          -454 332 539 rmoveto
          97 -69 78 -85 -86 -68 -78 -97 -96 68 -79 86 85 69 79 96 vhcurveto
          -66 3 -2 callsubr
          endchar
        </CharString>
        <CharString name="dieresis">
          -497 135 606 -93 callgsubr
        </CharString>
        <CharString name="divide">
          -370 410 263 rmoveto
          -26 callsubr
          -125 -59 -131 10 -24 callsubr
          182 -4 98 -23 rrcurveto
          -88 252 rmoveto
          0 callgsubr
          -343 vmoveto
          0 callgsubr
          endchar
        </CharString>
        <CharString name="dollar">
          -200 576 332 rmoveto
          -15 -20 -16 -18 -18 -15 -56 85 -99 39 -69 22 rrcurveto
          0 -48 14 -10 43 vhcurveto
          2 21 22 2 24 hhcurveto
          70 77 -12 -36 79 hvcurveto
          0 -3 19 28 vvcurveto
          42 6 62 28 43 vhcurveto
          -94 -17 -87 0 0 vvcurveto
          -6 hlineto
          6 69 9 67 1 callsubr
          -50 6 -60 4 -64 -88 -22 -107 -49 -36 -110 rrcurveto
          0 18 11 33 13 vhcurveto
          1 -34 9 -42 35 -29 65 -56 132 -17 40 -18 rrcurveto
          0 20 -10 15 -21 vhcurveto
          -8 -31 -31 -4 -30 hhcurveto
          -53 -116 7 56 -108 hvcurveto
          0 48 -82 33 -125 vhcurveto
          12 20 25 3 27 hhcurveto
          25 27 -3 -2 28 hvcurveto
          -3 -80 -6 -76 -8 -62 4 callgsubr
          57 -8 66 -4 71 rrcurveto
          108 29 91 84 115 vvcurveto
          9 0 10 -1 9 vhcurveto
          endchar
        </CharString>
        <CharString name="dotaccent">
          -652 158 610 -54 callgsubr
        </CharString>
        <CharString name="dotlessi">
          -62 callgsubr
          endchar
        </CharString>
        <CharString name="dotlessj">
          -52 callsubr
          endchar
        </CharString>
        <CharString name="e">
          -105 callsubr
          endchar
        </CharString>
        <CharString name="eacute">
          -105 callsubr
          207 698 -101 callsubr
        </CharString>
        <CharString name="ebreve">
          -105 callsubr
          110 796 -85 callsubr
        </CharString>
        <CharString name="ecaron">
          -105 callsubr
          190 774 -98 callsubr
        </CharString>
        <CharString name="ecircumflex">
          -105 callsubr
          184 644 -104 callgsubr
        </CharString>
        <CharString name="edieresis">
          -105 callsubr
          -4 675 -93 callgsubr
        </CharString>
        <CharString name="edotaccent">
          -105 callsubr
          103 693 -54 callgsubr
        </CharString>
        <CharString name="egrave">
          -105 callsubr
          84 664 -72 callsubr
        </CharString>
        <CharString name="eight">
          26 11 238 rmoveto
          47 -101 12 -62 6 -103 rrcurveto
          0 119 -50 213 169 146 54 151 98 vhcurveto
          -23 -8 -37 -7 -42 -6 -26 107 -78 53 -80 43 63 28 62 36 35 66 19 -13 18 -14 16 -15 rrcurveto
          104 20 90 49 80 vhcurveto
          59 -110 -210 12 -79 hhcurveto
          -160 -145 -71 -158 -89 hvcurveto
          23 10 25 8 25 6 rrcurveto
          -1 -8 0 -7 -7 vvcurveto
          -97 44 -59 58 -43 vhcurveto
          -45 -31 -36 -40 -14 -59 rrcurveto
          228 364 rmoveto
          48 -4 52 -7 51 -12 -8 -55 -44 -33 -56 -30 rrcurveto
          -29 29 -17 36 49 vvcurveto
          10 1 9 2 8 vhcurveto
          39 -329 rmoveto
          59 -33 45 -38 5 -63 rrcurveto
          -56 -49 4 9 -45 hvcurveto
          -1 6 0 6 7 vvcurveto
          45 16 32 26 25 vhcurveto
          endchar
        </CharString>
        <CharString name="ellipsis">
          138 288 75 -40 callsubr
          316 hmoveto
          -57 callsubr
          316 hmoveto
          -2 callgsubr
        </CharString>
        <CharString name="emacron">
          -105 callsubr
          173 619 -74 callsubr
        </CharString>
        <CharString name="emdash">
          290 1050 256 -10 callgsubr
          -23 -71 -246 -13 -233 hhcurveto
          -202 -192 -1 callsubr
          185 6 200 hhcurveto
          247 269 -8 -4 54 hvcurveto
          endchar
        </CharString>
        <CharString name="endash">
          -210 550 256 -10 callgsubr
          -23 -71 -103 -13 -100 hhcurveto
          -86 -84 -1 callsubr
          85 6 89 hhcurveto
          110 117 -8 -4 54 hvcurveto
          endchar
        </CharString>
        <CharString name="eng">
          11 790 -28 rmoveto
          -18 -7 -17 -7 -17 -6 rrcurveto
          -20 74 -12 132 59 -13 callsubr
          -58 callsubr
          41 -26 41 -29 41 -32 rrcurveto
          11 -47 -45 callsubr
          25 96 12 94 -4 92 84 -100 72 -117 48 -135 rrcurveto
          -5 -36 -36 -2 -35 -32 callsubr
          endchar
        </CharString>
        <CharString name="eogonek">
          -103 673 -52 callgsubr
          23 15 31 17 25 hvcurveto
          37 -7 37 -7 37 -9 rrcurveto
          -105 callgsubr
          -2 9 59 -6 59 -7 59 -10 rlinecurve
          -49 -37 -25 -42 -37 -23 callgsubr
        </CharString>
        <CharString name="equal">
          -329 430 365 rmoveto
          -39 callsubr
          -225 vmoveto
          -39 callsubr
          endchar
        </CharString>
        <CharString name="eth">
          -56 callsubr
        </CharString>
        <CharString name="exclam">
          -471 312 748 rmoveto
          -51 -68 -137 -14 -65 hhcurveto
          -9 -8 0 1 -6 hvcurveto
          37 -71 37 -180 -137 vvcurveto
          -39 -3 -36 -7 -29 vhcurveto
          4 25 59 7 26 hhcurveto
          15 39 -2 -2 15 hvcurveto
          -5 41 -3 46 48 vvcurveto
          146 23 164 35 104 vhcurveto
          -6 -673 -32 callgsubr
        </CharString>
        <CharString name="exclamdown">
          -484 21 -202 rmoveto
          51 68 137 14 65 hhcurveto
          9 8 0 -1 6 hvcurveto
          -37 71 -37 180 137 vvcurveto
          39 3 36 7 29 vhcurveto
          -4 -25 -59 -7 -26 hhcurveto
          -15 -39 2 2 -15 hvcurveto
          5 -41 3 -46 -48 vvcurveto
          -146 -23 -164 -35 -104 vhcurveto
          6 673 -3 callgsubr
        </CharString>
        <CharString name="f">
          -115 -71 callsubr
          endchar
        </CharString>
        <CharString name="fi">
          244 -71 callsubr
          674 -88 callsubr
          endchar
        </CharString>
        <CharString name="five">
          -47 710 139 rmoveto
          23 92 -50 146 -205 48 rrcurveto
          0 -73 17 -88 3 vhcurveto
          9 102 106 -27 129 -7 152 3 rlinecurve
          2 82 13 80 30 79 -232 -63 -246 -4 -224 28 22 -33 26 -27 30 -23 -19 -221 rcurveline
          -23 -11 -20 -15 -16 -18 133 38 312 -96 -13 -115 -15 -141 -291 86 -94 123 -80 -249 rcurveline
          423 -167 231 102 48 188 rrcurveto
          endchar
        </CharString>
        <CharString name="fl">
          521 -71 callsubr
          1003 -79 callsubr
          endchar
        </CharString>
        <CharString name="four">
          -41 731 27 rmoveto
          -16 105 -9 107 107 vvcurveto
          84 5 85 12 86 vhcurveto
          -24 -63 -92 -12 -62 hhcurveto
          -14 -14 1 1 -14 hvcurveto
          12 -64 7 -58 2 -54 rrcurveto
          -9 -46 -45 -4 -46 hhcurveto
          -23 -22 2 2 -23 hvcurveto
          47 128 69 103 78 93 rrcurveto
          -6 -38 -38 -3 -38 hhcurveto
          -58 -78 7 15 -57 hvcurveto
          -28 -184 -60 -171 -88 -161 rrcurveto
          20 111 130 10 108 hhcurveto
          45 46 -2 -4 45 hvcurveto
          -15 -98 -29 -84 -26 -86 rrcurveto
          45 84 119 24 95 9 9 -1 9 hhcurveto
          endchar
        </CharString>
        <CharString name="fraction">
          -263 566 686 -51 callsubr
          endchar
        </CharString>
        <CharString name="g">
          -94 callgsubr
          endchar
        </CharString>
        <CharString name="gbreve">
          -94 callgsubr
          -264 610 -85 callsubr
        </CharString>
        <CharString name="gcircumflex">
          -94 callgsubr
          -183 470 -104 callgsubr
        </CharString>
        <CharString name="gcommaaccent">
          -94 callgsubr
          -214 -303 -80 callsubr
        </CharString>
        <CharString name="gdotaccent">
          -94 callgsubr
          -270 504 -54 callgsubr
        </CharString>
        <CharString name="germandbls">
          701 -92 callsubr
          757 hmoveto
          -96 callgsubr
          endchar
        </CharString>
        <CharString name="grave">
          -583 227 574 -72 callsubr
        </CharString>
        <CharString name="greater">
          -411 49 265 rmoveto
          35 -43 30 -123 2 -76 71 114 85 113 102 103 -97 105 -80 85 -75 125 -8 -66 -32 -118 -31 -58 rrcurveto
          64 81 -25 -52 46 hvcurveto
          -40 -51 -86 -38 -67 5 rrcurveto
          endchar
        </CharString>
        <CharString name="greaterequal">
          -416 39 -54 rmoveto
          91 20 135 7 96 -37 -8 45 -1 87 12 48 -65 -28 -95 -8 -77 12 70 97 60 84 107 80 -96 84 -87 74 -89 117 rrcurveto
          -67 -21 -86 -33 -49 vhcurveto
          88 -6 96 -67 -7 callgsubr
          -115 -74 -68 -14 vhcurveto
          28 -39 26 -53 12 -77 -26 6 -22 9 -18 11 14 -43 -2 -86 -12 -47 rrcurveto
          endchar
        </CharString>
        <CharString name="guillemotleft">
          -137 628 427 rmoveto
          -22 50 -19 65 54 vvcurveto
          11 1 11 2 10 vhcurveto
          -101 -111 -90 -92 -96 -88 107 -90 98 -78 76 -106 2 76 10 61 20 66 rrcurveto
          -4 -5 -1 -4 hhcurveto
          -60 -56 26 45 -39 hvcurveto
          51 41 54 42 62 hhcurveto
          7 8 -1 -1 8 hvcurveto
          -282 -162 rmoveto
          -2 -9 -10 -2 -9 hhcurveto
          -61 -56 49 45 -35 hvcurveto
          52 46 59 19 -11 callsubr
        </CharString>
        <CharString name="guillemotright">
          -138 651 353 rmoveto
          -110 95 -95 75 -77 105 -2 -76 -10 -60 -19 -66 rrcurveto
          71 57 -25 -46 41 hvcurveto
          -48 -42 -52 -46 -59 hhcurveto
          -9 -10 1 3 -9 hvcurveto
          29 -69 8 -64 -69 vvcurveto
          101 111 90 92 97 87 rrcurveto
          -282 -16 -6 callgsubr
          -50 -51 -52 -20 -66 0 callsubr
        </CharString>
        <CharString name="guilsinglleft">
          -417 346 265 rmoveto
          -2 -9 -9 -1 -9 hhcurveto
          -63 -52 45 48 -38 hvcurveto
          51 48 57 20 -11 callsubr
        </CharString>
        <CharString name="guilsinglright">
          -420 369 337 -6 callgsubr
          -52 -50 -52 -18 -67 0 callsubr
        </CharString>
        <CharString name="h">
          -48 callgsubr
          endchar
        </CharString>
        <CharString name="hbar">
          -47 callgsubr
          4 27 5 26 8 26 106 33 rcurveline
          -29 -4 -33 -2 -37 -2 13 38 16 38 20 37 2 callgsubr
          -15 -52 -11 -51 -8 -51 -55 1 -56 3 -53 4 -3 83 rcurveline
          -89 1 -75 14 -84 23 8 -31 7 -31 5 -30 -26 5 -23 3 callgsubr
          88 4 rcurveline
          -2 -120 -28 -114 -47 -108 rrcurveto
          -4 callsubr
          156 375 rmoveto
          -2 -19 -2 -20 -1 -19 -48 -6 -48 -6 -49 -5 rrcurveto
          17 0 18 -1 17 vhcurveto
          50 5 48 8 53 10 rrcurveto
          endchar
        </CharString>
        <CharString name="hcircumflex">
          -48 callgsubr
          259 657 -104 callgsubr
        </CharString>
        <CharString name="hungarumlaut">
          -396 227 616 -61 callsubr
        </CharString>
        <CharString name="hyphen">
          -331 429 -25 callsubr
        </CharString>
        <CharString name="i">
          -62 callgsubr
          endchar
        </CharString>
        <CharString name="iacute">
          -447 305 -88 callsubr
          46 106 -101 callsubr
        </CharString>
        <CharString name="ibreve">
          -62 callgsubr
          -45 198 -85 callsubr
        </CharString>
        <CharString name="icircumflex">
          -445 311 -88 callsubr
          35 55 -104 callgsubr
        </CharString>
        <CharString name="idieresis">
          -441 316 -88 callsubr
          -153 88 -93 callgsubr
        </CharString>
        <CharString name="igrave">
          -440 321 -88 callsubr
          -89 56 -72 callsubr
        </CharString>
        <CharString name="ij">
          159 -68 callsubr
          647 -368 -62 callsubr
          endchar
        </CharString>
        <CharString name="imacron">
          -62 callgsubr
          18 31 -74 callsubr
        </CharString>
        <CharString name="iogonek">
          -451 301 -52 callgsubr
          29 25 43 22 26 hvcurveto
          11 11 1 11 -63 callsubr
          -59 callgsubr
          35 7 33 5 31 3 rrcurveto
          -58 -38 -30 -47 -40 -23 callgsubr
        </CharString>
        <CharString name="itilde">
          -62 callgsubr
          38 140 -98 callgsubr
        </CharString>
        <CharString name="j">
          -52 callsubr
          endchar
        </CharString>
        <CharString name="jcircumflex">
          -52 callsubr
          -23 461 -104 callgsubr
        </CharString>
        <CharString name="k">
          -59 callsubr
          endchar
        </CharString>
        <CharString name="kcommaaccent">
          -59 callsubr
          143 -638 -80 callsubr
        </CharString>
        <CharString name="kgreenlandic">
          -59 callsubr
          endchar
        </CharString>
        <CharString name="l">
          -67 callgsubr
          endchar
        </CharString>
        <CharString name="lacute">
          -67 callgsubr
          -262 706 -101 callsubr
        </CharString>
        <CharString name="lcaron">
          -67 callgsubr
          -256 767 -80 callsubr
        </CharString>
        <CharString name="lcommaaccent">
          -67 callgsubr
          -218 -63 -80 callsubr
        </CharString>
        <CharString name="ldotaccent">
          154 -75 callgsubr
          276 335 -32 callgsubr
        </CharString>
        <CharString name="less">
          -411 350 265 rmoveto
          -67 -5 -86 38 -40 51 rrcurveto
          52 46 81 25 64 hhcurveto
          -31 58 -32 118 -8 66 -75 -125 -80 -85 -97 -105 102 -103 85 -113 71 -114 2 76 30 123 35 43 rrcurveto
          endchar
        </CharString>
        <CharString name="lessequal">
          -416 355 -54 rmoveto
          -26 callsubr
          -18 -11 -23 -9 -25 -6 11 77 26 53 29 39 rrcurveto
          -68 14 -115 74 -7 callgsubr
          96 67 88 6 vhcurveto
          -33 49 -21 86 67 vvcurveto
          -89 -117 -87 -74 -96 -84 107 -80 60 -84 70 -97 -77 -12 -95 8 -65 28 -25 callgsubr
          96 37 135 -7 91 -20 rrcurveto
          endchar
        </CharString>
        <CharString name="logicalnot">
          -283 481 128 rmoveto
          -30 84 -4 159 22 82 -113 -23 -215 -5 -106 26 14 -49 7 -87 -16 -45 74 33 112 18 97 -19 -1 -82 0 -27 -33 -72 51 16 92 7 49 -16 rrcurveto
          endchar
        </CharString>
        <CharString name="lslash">
          -160 653 -42 callsubr
          9 36 8 35 6 36 38 7 37 5 34 6 -18 34 -13 73 6 42 -22 -12 -21 -10 -22 -10 rrcurveto
          7 67 3 66 67 -16 callgsubr
          18 -79 12 -79 5 -80 -32 -3 -33 -1 -32 2 17 -35 12 -77 1 -42 18 11 24 11 25 10 -2 -50 -6 -50 -9 -51 -42 callgsubr
          endchar
        </CharString>
        <CharString name="m">
          179 920 557 rmoveto
          -59 -107 0 50 -94 hvcurveto
          -23 -109 -37 -90 -45 -111 -34 -85 rcurveline
          -64 230 -112 148 0 vvcurveto
          -31 -74 -69 -9 -55 hhcurveto
          -64 -46 12 5 -27 hvcurveto
          61 -46 55 -44 49 -46 rrcurveto
          2 -21 1 -19 -17 vvcurveto
          -150 -54 -121 -102 -98 vhcurveto
          2 28 30 3 20 hhcurveto
          66 67 -14 -28 68 hvcurveto
          29 75 19 76 8 75 33 -69 22 -77 9 -87 rrcurveto
          25 86 93 0 15 hhcurveto
          10 80 23 70 32 64 8 -77 18 -78 30 -77 rrcurveto
          28 69 48 14 56 26 20 -4 26 hhcurveto
          -60 60 -67 91 141 vvcurveto
          72 16 85 50 102 vhcurveto
          endchar
        </CharString>
        <CharString name="macron">
          -512 298 569 -74 callsubr
        </CharString>
        <CharString name="minus">
          -328 430 -25 callsubr
        </CharString>
        <CharString name="mu">
          8 792 580 rmoveto
          -99 callsubr
          -77 11 -71 21 -60 vhcurveto
          -2 -152 -10 -149 -15 -115 4 callsubr
          -10 45 -7 48 -6 51 rrcurveto
          -4 27 26 -3 26 -31 callgsubr
          -530 -561 rmoveto
          2 2 -1 -1 2 hvcurveto
          -2 -1 -2 -1 -1 -2 rrcurveto
          2 -1 2 2 vvcurveto
          endchar
        </CharString>
        <CharString name="multiply">
          -342 158 531 rmoveto
          -25 -42 -59 -62 -41 -21 41 -21 38 -23 34 -26 -32 -28 -36 -23 -40 -19 42 -25 61 -62 26 -38 14 33 27 37 31 36 26 -31 22 -35 19 -38 25 42 62 61 38 26 rrcurveto
          -31 14 -35 24 -36 29 35 31 35 27 27 17 -42 25 -62 59 -21 41 -20 -40 -23 -37 -24 -33 -34 37 -27 36 -15 29 rrcurveto
          endchar
        </CharString>
        <CharString name="n">
          -76 callsubr
          endchar
        </CharString>
        <CharString name="nacute">
          -76 callsubr
          -225 151 -101 callsubr
        </CharString>
        <CharString name="napostrophe">
          216 271 625 -81 callgsubr
          763 -87 -91 callgsubr
          endchar
        </CharString>
        <CharString name="nbspace">
          -410 endchar
        </CharString>
        <CharString name="ncaron">
          -76 callsubr
          -236 217 -98 callsubr
        </CharString>
        <CharString name="ncommaaccent">
          -76 callsubr
          -343 -603 -80 callsubr
        </CharString>
        <CharString name="nine">
          -45 339 754 rmoveto
          -172 -161 -118 -184 -138 117 -97 125 77 90 38 84 18 hvcurveto
          -20 -23 -28 -14 -39 hhcurveto
          -73 -62 38 70 68 49 35 62 60 41 -32 -64 48 hvcurveto
          17 33 20 30 23 28 rrcurveto
          9 -24 5 -23 -22 vvcurveto
          -167 -167 -166 -262 -19 vhcurveto
          109 -46 108 -61 74 -71 rrcurveto
          231 106 107 177 158 vvcurveto
          94 -39 86 -73 61 vhcurveto
          20 11 21 9 24 7 rrcurveto
          76 -97 -120 57 -139 hhcurveto
          endchar
        </CharString>
        <CharString name="notequal">
          -351 416 631 rmoveto
          -39 -8 -74 38 -28 25 -9 -60 -13 -60 -14 -60 -68 -3 -66 9 -66 23 -25 callgsubr
          rrcurveto
          16 42 59 5 61 hhcurveto
          -30 -94 -46 3 -44 9 -45 16 rlinecurve
          -25 callgsubr
          24 9 29 6 32 3 -27 -73 -28 -72 -28 -69 57 68 51 71 47 78 80 1 83 -8 56 -4 -26 callsubr
          -50 -16 -48 -11 -48 -5 rrcurveto
          15 28 13 30 14 31 104 -8 rcurveline
          -26 callsubr
          -13 -5 -13 -4 -13 -3 rrcurveto
          endchar
        </CharString>
        <CharString name="ntilde">
          10 835 -84 callgsubr
          -244 187 -98 callgsubr
        </CharString>
        <CharString name="numbersign">
          -180 602 526 rmoveto
          -27 -7 -45 -6 -7 callgsubr
          29 64 31 46 vhcurveto
          -49 -8 -97 2 -43 11 rrcurveto
          -49 -3 -39 -7 -37 vhcurveto
          -1 -19 -23 -2 -21 hhcurveto
          0 26 57 24 28 vhcurveto
          -49 -5 -92 6 -46 7 3 -31 0 -30 -4 -30 rrcurveto
          0 -57 4 -26 9 vhcurveto
          -52 -16 -78 -13 -28 vhcurveto
          41 12 49 9 0 vvcurveto
          -5 -23 -8 -28 -8 -24 rrcurveto
          0 -54 6 -35 8 vhcurveto
          -42 -16 -82 -13 -30 vhcurveto
          36 7 44 6 -7 callgsubr
          -15 -39 -12 -27 vhcurveto
          40 8 86 0 38 -8 rrcurveto
          -4 25 7 51 -7 callgsubr
          45 1 12 -1 vhcurveto
          0 -26 -63 -24 -43 vhcurveto
          43 15 97 4 41 -12 rrcurveto
          36 7 54 0 vhcurveto
          0 39 -6 29 -5 vhcurveto
          -5 32 22 88 13 28 rrcurveto
          -31 -5 -44 -5 0 vvcurveto
          6 25 7 27 8 26 rrcurveto
          0 45 -6 36 -6 vhcurveto
          -8 37 26 86 15 33 rrcurveto
          -235 -138 rmoveto
          -6 -30 -12 -31 -9 -29 rrcurveto
          -1 -25 -23 1 -23 hhcurveto
          5 21 16 52 11 19 rrcurveto
          33 16 -1 -1 17 hvcurveto
          endchar
        </CharString>
        <CharString name="o">
          -102 callgsubr
          endchar
        </CharString>
        <CharString name="oacute">
          -102 callgsubr
          16 390 -101 callsubr
        </CharString>
        <CharString name="obreve">
          -102 callgsubr
          -92 469 -85 callsubr
        </CharString>
        <CharString name="ocircumflex">
          -102 callgsubr
          -12 332 -104 callgsubr
        </CharString>
        <CharString name="odieresis">
          -102 callgsubr
          -199 357 -93 callgsubr
        </CharString>
        <CharString name="oe">
          402 834 -6 callsubr
          110 5 callgsubr
          1 callgsubr
          -25 rlinecurve
          -68 callgsubr
          52 vvcurveto
          57 -16 58 -19 57 -25 rrcurveto
          -5 22 -2 22 20 -95 callsubr
          -58 11 -28 9 -27 7 rrcurveto
          -3 1 -3 1 -3 vhcurveto
          2 -15 -14 1 -12 -72 callgsubr
          65 64 8 15 60 hvcurveto
          -2 -5 -2 -5 -1 -5 rrcurveto
          23 87 72 0 75 hhcurveto
          -177 308 rmoveto
          -96 -86 -58 -69 callsubr
          22 30 -4 -12 42 vhcurveto
          30 49 rlineto
          33 -21 23 -33 -52 vvcurveto
          endchar
        </CharString>
        <CharString name="ogonek">
          -567 243 -52 callgsubr
          36 38 57 24 20 hvcurveto
          -10 7 rlineto
          -89 -41 -45 -60 -49 -23 callgsubr
        </CharString>
        <CharString name="ograve">
          -102 callgsubr
          -126 354 -72 callsubr
        </CharString>
        <CharString name="ohungarumlaut">
          -102 callgsubr
          -122 401 -61 callsubr
        </CharString>
        <CharString name="omacron">
          -102 callgsubr
          -28 289 -74 callsubr
        </CharString>
        <CharString name="one">
          -351 415 719 rmoveto
          -28 -87 -102 -14 -96 hhcurveto
          -36 -36 2 4 -37 hvcurveto
          22 -71 10 -73 -73 vvcurveto
          -34 -2 -34 -4 -34 vhcurveto
          36 47 38 39 42 22 rrcurveto
          -30 vlineto
          -187 -44 -163 -56 -157 vhcurveto
          39 108 116 21 110 hhcurveto
          -13 99 -6 97 97 vvcurveto
          146 13 143 24 142 vhcurveto
          endchar
        </CharString>
        <CharString name="onehalf">
          91 869 110 -34 callsubr
          -244 576 -51 callsubr
          -320 47 -41 callgsubr
        </CharString>
        <CharString name="onequarter">
          19 625 686 -46 callsubr
          -483 720 -41 callgsubr
        </CharString>
        <CharString name="onesuperior">
          -543 229 733 -41 callgsubr
        </CharString>
        <CharString name="ordfeminine">
          -238 529 460 rmoveto
          -17 27 -14 35 -12 41 -17 -12 -17 -11 -17 -9 -20 48 -17 50 -14 53 -22 -4 -21 -3 -19 -1 24 43 rcurveline
          -26 -12 -23 -15 -21 -17 -38 1 -37 6 -38 11 18 -26 20 -37 10 -23 -24 -30 -19 -33 -18 -32 -14 6 -16 6 -15 8 8 -18 10 -16 11 -13 -20 -33 -41 -58 -53 -53 rrcurveto
          10 34 28 4 26 hhcurveto
          59 51 -28 0 hvcurveto
          5 32 6 30 6 29 rrcurveto
          -7 25 27 -3 28 hhcurveto
          16 16 1 2 16 hvcurveto
          7 -25 4 -22 -19 vvcurveto
          -12 -1 -10 -4 -11 vhcurveto
          26 57 53 11 61 hhcurveto
          -22 29 -20 30 -18 33 17 6 16 7 16 8 rrcurveto
          -8 -298 rmoveto
          -12 47 -2 36 14 43 -135 -33 -207 5 callsubr
          291 2 callsubr
          -189 330 rmoveto
          -4 -20 -19 -2 -20 hhcurveto
          -21 hlineto
          10 35 11 33 11 31 19 -32 16 -31 13 -30 rrcurveto
          endchar
        </CharString>
        <CharString name="ordmasculine">
          -266 407 690 rmoveto
          2 -23 -21 1 -20 hhcurveto
          -144 -159 -55 -136 -78 61 -42 74 -13 hvcurveto
          -8 -10 -10 -10 -11 -8 rrcurveto
          -7 18 40 -1 32 hhcurveto
          136 135 54 129 75 -60 49 -74 14 hvcurveto
          11 13 12 12 14 11 rrcurveto
          81 -528 rmoveto
          -12 47 -2 36 14 43 -135 -33 -157 5 callsubr
          241 2 callsubr
          -111 374 rmoveto
          -58 -51 -34 -51 -17 -22 4 13 -29 vhcurveto
          -1 -14 -1 -12 -4 -12 rrcurveto
          -22 18 -15 23 26 vvcurveto
          56 56 34 49 13 18 -3 -7 27 vhcurveto
          3 11 4 11 4 10 rrcurveto
          23 -12 16 -21 -33 vvcurveto
          endchar
        </CharString>
        <CharString name="oslash">
          -43 callgsubr
          endchar
        </CharString>
        <CharString name="oslashacute">
          -43 callgsubr
          -37 336 -101 callsubr
        </CharString>
        <CharString name="otilde">
          -102 callgsubr
          -9 405 -98 callgsubr
        </CharString>
        <CharString name="p">
          -35 785 475 rmoveto
          -49 callgsubr
          14 35 13 -64 callgsubr
          210 167 173 169 28 hvcurveto
          -329 -26 -37 callsubr
          62 2 62 2 63 vhcurveto
          4 35 35 2 35 hhcurveto
          endchar
        </CharString>
        <CharString name="paragraph">
          267 25 543 rmoveto
          -241 5 198 -143 219 hhcurveto
          3 hlineto
          -59 -2 -60 -2 -61 vhcurveto
          2 26 24 2 24 hhcurveto
          60 55 -10 -30 65 hvcurveto
          -22 85 -14 88 -8 92 24 12 21 14 20 15 rrcurveto
          -88 -2 -89 -3 -93 vhcurveto
          7 32 29 3 29 hhcurveto
          53 51 -11 -15 62 hvcurveto
          -38 157 -16 165 175 vvcurveto
          59 vlineto
          56 -12 40 -12 15 -7 rrcurveto
          -10 36 -7 39 40 vvcurveto
          45 8 46 20 40 vhcurveto
          15 -81 -162 24 -169 hhcurveto
          -249 -265 -52 -204 -40 hvcurveto
          -2 vlineto
          -17 8 -17 9 -15 11 rrcurveto
          225 -69 rmoveto
          40 46 72 24 84 11 3 -76 1 -76 1 -77 -66 17 -48 43 -9 82 rrcurveto
          321 89 rmoveto
          22 -1 23 -2 22 -2 3 -69 1 -68 1 -70 -24 -7 -24 -6 -24 -4 rrcurveto
          -1 32 -1 33 34 vvcurveto
          43 0 43 2 44 vhcurveto
          endchar
        </CharString>
        <CharString name="parenleft">
          -336 442 892 rmoveto
          -135 -14 -291 -175 -373 vvcurveto
          -334 269 -143 204 vhcurveto
          -154 71 -102 154 181 vvcurveto
          267 177 118 83 26 vhcurveto
          -78 90 27 132 0 vvcurveto
          endchar
        </CharString>
        <CharString name="parenright">
          -337 31 -147 rmoveto
          135 14 291 175 373 vvcurveto
          334 -269 143 -204 vhcurveto
          154 -71 102 -154 -181 vvcurveto
          -267 -177 -118 -83 -26 vhcurveto
          78 -90 -27 -132 0 vvcurveto
          endchar
        </CharString>
        <CharString name="partialdiff">
          37 806 328 rmoveto
          233 -274 190 -281 vhcurveto
          93 -36 94 -65 66 -79 rrcurveto
          -232 -7 -245 -93 -218 vvcurveto
          -129 102 -70 123 -23 vhcurveto
          -30 callgsubr
          96 -19 53 hhcurveto
          272 151 125 248 hvcurveto
          -212 24 rmoveto
          -156 -86 -40 -74 callgsubr
          13 44 18 38 22 33 rrcurveto
          19 -41 12 -44 -44 vvcurveto
          endchar
        </CharString>
        <CharString name="percent">
          88 419 591 -40 callgsubr
          450 -400 rmoveto
          -60 callgsubr
          endchar
        </CharString>
        <CharString name="period">
          -494 288 75 -32 callgsubr
        </CharString>
        <CharString name="periodcentered">
          -473 299 332 -32 callgsubr
        </CharString>
        <CharString name="perthousand">
          519 420 591 -40 callgsubr
          881 -400 -40 callgsubr
          -431 hmoveto
          -60 callgsubr
          886 -400 -58 callgsubr
          endchar
        </CharString>
        <CharString name="pi">
          -158 319 -14 rmoveto
          -45 148 -4 147 9 146 36 5 36 3 35 1 -38 -139 -6 -145 10 -143 94 9 65 -15 73 -33 -46 143 -30 162 -13 159 52 -4 51 -7 49 -11 rrcurveto
          -15 callgsubr
          -61 -9 -55 -5 -53 -2 -1 38 -1 38 1 38 -23 -38 -19 -38 -17 -39 rrcurveto
          -2 hlineto
          -45 -45 2 3 -45 hvcurveto
          9 91 -21 -28 -19 -28 -18 -30 rlinecurve
          -72 8 -73 11 -71 14 -17 callsubr
          47 19 47 15 48 11 -56 -147 -23 -158 13 -148 rrcurveto
          29 101 32 4 89 hhcurveto
          endchar
        </CharString>
        <CharString name="plus">
          -366 304 -30 callsubr
          endchar
        </CharString>
        <CharString name="plusminus">
          -347 314 -30 callsubr
          107 -582 rmoveto
          -38 callgsubr
          189 -7 91 -20 rrcurveto
          endchar
        </CharString>
        <CharString name="product">
          -43 379 -17 rmoveto
          -54 184 -14 185 4 182 44 6 43 4 43 1 -42 -167 -10 -187 13 -178 102 15 95 -28 55 -38 -54 185 -34 202 -15 195 62 -4 58 -9 53 -12 rrcurveto
          -15 callsubr
          -65 -12 -65 -6 -64 -2 -1 36 -1 36 1 35 -20 -34 -17 -37 -15 -37 rrcurveto
          -5 hlineto
          -55 -56 2 5 -54 hvcurveto
          6 81 -17 -24 -16 -25 -15 -27 rlinecurve
          -80 9 -79 14 -77 17 -17 callgsubr
          50 22 53 17 53 14 -58 -181 -27 -208 13 -177 rrcurveto
          31 101 58 6 93 hhcurveto
          endchar
        </CharString>
        <CharString name="q">
          30 646 6 callsubr
          3 -43 -73 callsubr
          25 24 1 3 25 hvcurveto
          75 -109 102 -62 0 vvcurveto
          49 107 94 41 18 8 rrcurveto
          1 1 1 1 1 hhcurveto
          -68 4 -72 15 -65 19 rrcurveto
          137 42 106 88 146 vvcurveto
          127 -101 81 -123 23 vhcurveto
          -87 callgsubr
          42 -28 23 -42 -40 vvcurveto
          177 -348 rmoveto
          -2 hlineto
          2 1 0 -1 0 vvcurveto
          endchar
        </CharString>
        <CharString name="question">
          -9 781 513 rmoveto
          -12 callgsubr
          -174 -236 3 -161 vvcurveto
          0 85 21 113 -21 vhcurveto
          116 270 12 196 3 callsubr
          -310 -438 -32 callgsubr
        </CharString>
        <CharString name="questiondown">
          -15 18 27 rmoveto
          -158 89 145 -71 160 hhcurveto
          79 170 12 59 110 hvcurveto
          -49 80 -20 90 104 vvcurveto
          -101 -99 -143 -43 -133 -11 rrcurveto
          -2 8 -1 9 10 174 236 -3 161 vvcurveto
          0 -85 -21 -113 21 vhcurveto
          -116 -270 -12 -196 vvcurveto
          -7 0 -8 1 -7 vhcurveto
          -25 6 -25 8 -23 10 rrcurveto
          310 438 -3 callgsubr
        </CharString>
        <CharString name="quotedbl">
          -352 -16 callsubr
          203 -13 rmoveto
          -10 -39 -99 -7 -40 hhcurveto
          -7 -8 0 1 -7 hvcurveto
          26 -83 8 -54 7 -101 rrcurveto
          4 14 38 3 14 hhcurveto
          11 35 -2 -1 11 hvcurveto
          85 10 77 26 88 vhcurveto
          endchar
        </CharString>
        <CharString name="quotedblbase">
          -291 283 104 -22 callsubr
        </CharString>
        <CharString name="quotedblleft">
          -289 205 464 -20 callsubr
          -222 26 -20 callsubr
          endchar
        </CharString>
        <CharString name="quotedblright">
          -291 316 653 -22 callsubr
        </CharString>
        <CharString name="quoteleft">
          -508 -15 486 -20 callsubr
          endchar
        </CharString>
        <CharString name="quoteright">
          -508 317 649 -45 callgsubr
        </CharString>
        <CharString name="quotesinglbase">
          -10 callsubr
        </CharString>
        <CharString name="quotesingle">
          -555 -16 callsubr
          endchar
        </CharString>
        <CharString name="r">
          -93 callsubr
          endchar
        </CharString>
        <CharString name="racute">
          -93 callsubr
          115 280 -101 callsubr
        </CharString>
        <CharString name="rcaron">
          -93 callsubr
          111 334 -98 callsubr
        </CharString>
        <CharString name="rcommaaccent">
          -93 callsubr
          44 -523 -80 callsubr
        </CharString>
        <CharString name="registered">
          -37 callgsubr
          425 -69 rmoveto
          -25 24 -23 27 -20 31 36 28 24 39 7 40 -6 -4 -7 -3 -6 -3 rrcurveto
          58 -15 -98 4 -49 hhcurveto
          -35 -45 -3 -8 -59 hvcurveto
          9 -15 6 -18 -19 vvcurveto
          -12 -2 -12 -5 -14 vhcurveto
          14 6 15 6 15 4 rrcurveto
          -7 vlineto
          -16 -1 -16 -2 -16 vhcurveto
          -14 2 -15 4 -13 4 6 -8 14 -13 19 -12 -6 -38 -10 -38 -14 -37 rrcurveto
          12 37 33 7 27 hhcurveto
          7 10 0 -2 9 hvcurveto
          -2 21 -1 22 21 vvcurveto
          -1 4 5 0 5 hhcurveto
          11 12 1 2 10 hvcurveto
          12 -25 7 -26 3 -29 39 18 37 12 40 2 rrcurveto
          -140 178 rmoveto
          29 11 -7 -12 11 hvcurveto
          -1 -1 hlineto
          -10 -2 -11 -2 -10 -1 -5 -35 -26 -16 -33 -5 rrcurveto
          26 1 26 1 26 vhcurveto
          2 17 15 1 11 hhcurveto
          endchar
        </CharString>
        <CharString name="ring">
          -612 198 617 -53 callgsubr
        </CharString>
        <CharString name="s">
          -55 -92 callsubr
          endchar
        </CharString>
        <CharString name="sacute">
          -55 -92 callsubr
          -192 445 -101 callsubr
        </CharString>
        <CharString name="scaron">
          -55 -92 callsubr
          -190 510 -98 callsubr
        </CharString>
        <CharString name="scedilla">
          -55 487 -8 callsubr
          8 32 rlineto
          174 5 174 107 159 vvcurveto
          11 0 11 -2 11 vhcurveto
          -96 callsubr
          74 35 76 -15 74 -3 -34 -69 rcurveline
          -55 callgsubr
        </CharString>
        <CharString name="scircumflex">
          -55 -92 callsubr
          -183 404 -104 callgsubr
        </CharString>
        <CharString name="section">
          35 811 184 rmoveto
          -26 -36 -30 -30 -33 -25 -10 22 -11 20 -14 17 rrcurveto
          29 27 49 60 92 vvcurveto
          173 -235 78 -109 34 vhcurveto
          -71 callgsubr
          -44 10 -56 42 -42 -67 -88 -23 -111 100 -110 132 -147 196 89 95 -106 rrcurveto
          -18 -55 -57 -9 -54 -29 callsubr
          42 77 114 -29 81 -20 callgsubr
          -307 173 rmoveto
          0 80 -38 -12 -78 vhcurveto
          -58 27 -61 14 -48 15 rrcurveto
          -67 17 -34 53 49 vvcurveto
          81 -28 84 -15 35 -16 rrcurveto
          endchar
        </CharString>
        <CharString name="semicolon">
          -454 320 382 -40 callsubr
          -23 -278 -45 callgsubr
        </CharString>
        <CharString name="seven">
          -93 743 722 rmoveto
          -225 -25 -287 -1 -228 26 47 -97 6 -105 -34 -111 101 65 168 38 125 26 -43 -181 -124 -203 -132 -167 121 13 145 -18 108 -57 34 281 77 289 141 227 rrcurveto
          endchar
        </CharString>
        <CharString name="six">
          -45 427 -68 rmoveto
          172 161 118 184 138 -117 97 -125 -77 -82 -39 -83 -26 hvcurveto
          17 19 32 17 39 hhcurveto
          73 62 -38 -70 -68 -49 -35 -62 -60 -41 32 64 -48 hvcurveto
          -17 -33 -20 -31 -24 -27 rrcurveto
          -9 23 -4 23 23 vvcurveto
          167 167 146 242 19 vhcurveto
          -109 46 -120 86 -42 66 rrcurveto
          -231 -106 -107 -177 -158 vvcurveto
          -94 38 -87 74 -61 vhcurveto
          -20 -10 -22 -9 -23 -7 rrcurveto
          -76 97 120 -57 139 hhcurveto
          endchar
        </CharString>
        <CharString name="slash">
          -165 621 686 rmoveto
          -79 -6 -111 21 -56 47 -40 -262 -109 -257 -210 -295 236 149 210 283 159 320 rrcurveto
          endchar
        </CharString>
        <CharString name="space">
          -410 endchar
        </CharString>
        <CharString name="sterling">
          -246 519 83 rmoveto
          -13 53 13 81 13 31 -114 -8 -92 -8 -75 -16 7 33 6 32 4 32 92 -6 rcurveline
          -8 33 -2 60 10 31 -25 -9 -29 -6 -29 -5 3 40 0 40 1 42 60 3 64 -8 59 -27 -6 63 3 53 30 59 -181 2 -209 -12 -58 -206 12 10 26 14 35 14 rrcurveto
          7 -38 3 -22 1 -29 -29 3 -27 6 -23 8 9 -33 -1 -61 -5 -32 18 7 27 4 31 2 -1 -49 -5 -49 -8 -50 -26 -16 -24 -20 -20 -24 169 30 179 -11 128 -41 rrcurveto
          endchar
        </CharString>
        <CharString name="t">
          -65 callsubr
          endchar
        </CharString>
        <CharString name="tbar">
          -152 579 136 -10 callgsubr
          -42 -14 -54 -10 -58 -6 -6 51 -4 52 -1 52 -61 callgsubr
          -21 -50 -16 -51 -12 -52 -65 4 -60 9 -44 16 rrcurveto
          -9 callgsubr
          31 11 54 7 61 3 rrcurveto
          -4 -42 -2 -42 -44 -18 callgsubr
          -16 47 -13 47 -11 48 rrcurveto
          endchar
        </CharString>
        <CharString name="tcaron">
          -65 callsubr
          -35 772 -98 callsubr
        </CharString>
        <CharString name="tcommaaccent">
          -65 callsubr
          -42 -84 -80 callsubr
        </CharString>
        <CharString name="thorn">
          -31 359 618 rmoveto
          -86 -36 -73 -17 -76 1 5 -20 4 -21 3 -21 -34 -3 -37 -5 -39 -5 rrcurveto
          22 -37 12 -42 -47 vvcurveto
          -27 -5 -31 -10 -33 vhcurveto
          32 14 33 13 33 11 -3 -43 -5 -42 -7 -42 -30 6 -29 7 -27 7 14 -16 27 -25 36 -24 -14 -72 -20 -68 -21 -57 -23 callsubr
          76 rlineto
          -1 12 12 0 13 hhcurveto
          202 169 137 198 27 hvcurveto
          -11 callgsubr
          -35 -247 8 -106 hhcurveto
          -2 hlineto
          2 36 1 34 3 32 rrcurveto
          99 -252 rmoveto
          49 43 -16 -30 25 hvcurveto
          -25 -5 -25 -4 -25 -3 -10 -83 -61 -38 -80 -13 rrcurveto
          105 vlineto
          80 vlineto
          5 37 36 2 36 hhcurveto
          endchar
        </CharString>
        <CharString name="three">
          -43 738 210 rmoveto
          -20 -11 -21 -9 -20 -8 rrcurveto
          -2 96 -114 65 -7 callgsubr
          127 68 4 118 vhcurveto
          71 -21 rlineto
          148 -68 -172 88 -185 hhcurveto
          -89 -154 -26 -38 -92 hvcurveto
          47 -77 33 -80 12 -85 112 83 129 30 133 8 rrcurveto
          -5 1 -5 -5 vvcurveto
          -54 -26 -100 -151 -4 vhcurveto
          3 -108 rlineto
          -4 157 -4 -122 hvcurveto
          -4 -1 -3 -4 vvcurveto
          -103 1 -144 25 -111 51 rrcurveto
          -85 -16 -76 -34 -74 vhcurveto
          -19 81 114 -9 67 hhcurveto
          209 142 89 166 85 hvcurveto
          endchar
        </CharString>
        <CharString name="threequarters">
          40 396 -35 callsubr
          261 205 -46 callsubr
          endchar
        </CharString>
        <CharString name="threesuperior">
          -391 391 -35 callsubr
          endchar
        </CharString>
        <CharString name="tilde">
          -473 337 640 -98 callgsubr
        </CharString>
        <CharString name="trademark">
          31 288 409 rmoveto
          -23 71 -12 73 -2 73 rrcurveto
          39 38 -4 -8 36 hvcurveto
          -5 16 -2 13 10 vvcurveto
          10 vlineto
          17 -13 15 -13 15 -14 rrcurveto
          1 -10 0 -10 -8 vvcurveto
          -75 -27 -61 -51 -49 vhcurveto
          1 14 15 2 10 hhcurveto
          33 34 -7 -14 34 hvcurveto
          14 37 10 38 4 38 17 -35 10 -38 5 -44 rrcurveto
          13 43 46 0 8 hhcurveto
          5 39 11 35 16 32 4 -39 9 -38 15 -38 rrcurveto
          14 35 24 7 28 13 10 -2 13 hhcurveto
          -30 30 -34 45 71 vvcurveto
          36 8 42 25 51 vhcurveto
          -29 -54 0 25 -47 hvcurveto
          -11 -54 -19 -45 -22 -56 -17 -42 rcurveline
          -32 115 -56 74 0 vvcurveto
          -16 -37 -35 -4 -27 hhcurveto
          -10 -9 0 1 -8 hvcurveto
          1 4 2 3 2 4 rrcurveto
          -5 -12 -87 -4 -16 hhcurveto
          -2 hlineto
          3 43 -11 -14 -10 -14 -9 -15 rlinecurve
          -57 2 -59 9 -55 11 rrcurveto
          4 -19 3 -19 -18 vvcurveto
          -20 -3 -21 -6 -23 vhcurveto
          46 19 48 11 47 5 rrcurveto
          -27 -65 -11 -67 -74 vvcurveto
          -7 0 -10 1 -8 vhcurveto
          12 38 37 5 37 hhcurveto
          endchar
        </CharString>
        <CharString name="two">
          -9 790 238 rmoveto
          -132 -76 -156 -41 -149 -16 rrcurveto
          103 149 249 0 261 3 callsubr
          -12 callgsubr
          vvcurveto
          -213 -270 42 -118 -250 vhcurveto
          -25 2 -25 3 -25 4 rrcurveto
          -121 112 143 -56 169 hhcurveto
          81 117 13 25 93 hvcurveto
          6 103 12 62 47 101 rrcurveto
          endchar
        </CharString>
        <CharString name="twosuperior">
          -371 411 497 -34 callsubr
          endchar
        </CharString>
        <CharString name="u">
          -102 callsubr
          endchar
        </CharString>
        <CharString name="uacute">
          -102 callsubr
          -192 111 -101 callsubr
        </CharString>
        <CharString name="ubreve">
          -102 callsubr
          -287 210 -85 callsubr
        </CharString>
        <CharString name="ucircumflex">
          -102 callsubr
          -202 64 -104 callgsubr
        </CharString>
        <CharString name="udieresis">
          -102 callsubr
          -389 97 -93 callgsubr
        </CharString>
        <CharString name="ugrave">
          -102 callsubr
          -336 69 -72 callsubr
        </CharString>
        <CharString name="uhungarumlaut">
          -102 callsubr
          -290 135 -61 callsubr
        </CharString>
        <CharString name="umacron">
          -102 callsubr
          -223 39 -74 callsubr
        </CharString>
        <CharString name="underscore">
          -184 546 -203 rmoveto
          -26 callsubr
          -133 -43 -211 -6 -24 callsubr
          271 2 callsubr
          endchar
        </CharString>
        <CharString name="uni00AD">
          -331 429 -25 callsubr
        </CharString>
        <CharString name="uni0312">
          -508 31 510 rmoveto
          49 2 66 -23 29 -20 13 62 26 55 34 49 -36 3 -27 13 -19 15 -28 -62 -53 -62 -54 -32 rrcurveto
          endchar
        </CharString>
        <CharString name="uni0315">
          -508 271 625 -80 callsubr
        </CharString>
        <CharString name="uni0326">
          -513 237 80 -80 callsubr
        </CharString>
        <CharString name="uogonek">
          -4 508 -52 callgsubr
          21 13 28 15 24 hvcurveto
          262 22 138 206 377 vvcurveto
          -100 callsubr
          -18 -19 -11 -1 -1 39 -8 37 -5 36 -1 rrcurveto
          -37 -33 -19 -36 -32 -23 callgsubr
        </CharString>
        <CharString name="uring">
          -102 callsubr
          -273 130 -53 callgsubr
        </CharString>
        <CharString name="utilde">
          -102 callsubr
          -204 143 -98 callgsubr
        </CharString>
        <CharString name="v">
          -64 760 554 rmoveto
          -4 -53 -45 -4 -43 hhcurveto
          -50 -57 5 9 -62 hvcurveto
          -111 -30 -129 -47 -104 vhcurveto
          -46 110 -18 118 -11 131 rrcurveto
          -30 -67 -73 -11 -68 hhcurveto
          -32 -36 2 4 -37 hvcurveto
          126 -151 91 -220 43 -179 rrcurveto
          16 62 59 8 53 hhcurveto
          27 29 -1 -4 34 hvcurveto
          36 201 90 185 125 159 rrcurveto
          endchar
        </CharString>
        <CharString name="w">
          -90 callsubr
          endchar
        </CharString>
        <CharString name="wacute">
          -90 callsubr
          -274 99 -101 callsubr
        </CharString>
        <CharString name="wcircumflex">
          -90 callsubr
          -299 61 -104 callgsubr
        </CharString>
        <CharString name="wdieresis">
          -90 callsubr
          -487 66 -93 callgsubr
        </CharString>
        <CharString name="wgrave">
          -90 callsubr
          -421 67 -72 callsubr
        </CharString>
        <CharString name="x">
          11 824 547 rmoveto
          -5 -52 -44 -3 -41 hhcurveto
          -51 -54 6 10 -57 hvcurveto
          -34 -48 -36 -46 -38 -45 -42 51 -39 54 -37 56 -92 -30 -97 -13 -99 -2 99 -79 95 -84 89 -93 -94 -100 -102 -95 -107 -93 rrcurveto
          7 60 55 3 49 hhcurveto
          38 40 -1 -5 47 hvcurveto
          43 52 43 51 45 49 40 -49 39 -53 38 -54 rrcurveto
          29 80 85 16 105 hhcurveto
          -91 78 -87 82 -82 86 93 94 96 89 97 85 rrcurveto
          endchar
        </CharString>
        <CharString name="y">
          -80 callgsubr
          endchar
        </CharString>
        <CharString name="yacute">
          -80 callgsubr
          -258 90 -101 callsubr
        </CharString>
        <CharString name="ycircumflex">
          -80 callgsubr
          -292 52 -104 callgsubr
        </CharString>
        <CharString name="ydieresis">
          -80 callgsubr
          -473 88 -93 callgsubr
        </CharString>
        <CharString name="yen">
          -92 543 224 rmoveto
          -9 33 -1 60 10 30 -26 -8 -35 -7 -41 -4 74 99 88 89 96 84 rrcurveto
          -12 -50 -48 -4 -45 hhcurveto
          -39 -37 3 8 -35 hvcurveto
          -21 -67 -32 -57 -48 -47 -44 45 -32 57 -21 67 rrcurveto
          -12 -36 -39 -4 -42 hhcurveto
          -35 -37 3 6 -38 hvcurveto
          90 -74 73 -88 56 -99 -45 3 -39 6 -26 9 8 -34 0 -61 -6 -31 20 8 39 4 46 2 -10 -42 -16 -41 -19 -40 rrcurveto
          7 36 35 4 35 hhcurveto
          54 52 -9 -16 54 hvcurveto
          -20 43 -13 45 -5 48 54 -2 47 -3 23 -1 rrcurveto
          endchar
        </CharString>
        <CharString name="ygrave">
          -80 callgsubr
          -412 34 -72 callsubr
        </CharString>
        <CharString name="z">
          -76 callgsubr
          endchar
        </CharString>
        <CharString name="zacute">
          -76 callgsubr
          -138 734 -101 callsubr
        </CharString>
        <CharString name="zcaron">
          -76 callgsubr
          -161 791 -98 callsubr
        </CharString>
        <CharString name="zdotaccent">
          -76 callgsubr
          -234 713 -54 callgsubr
        </CharString>
        <CharString name="zero">
          18 801 423 rmoveto
          -28 -13 -29 -9 -30 -5 rrcurveto
          2 11 1 11 12 vvcurveto
          158 -104 153 -221 -234 -136 -176 -215 -27 2 -25 4 -28 vhcurveto
          28 11 29 10 29 8 rrcurveto
          -2 -13 -1 -12 -12 vvcurveto
          -160 105 -151 221 232 138 176 215 27 -2 26 -4 28 vhcurveto
          -604 -112 rmoveto
          31 33 -6 -13 33 hvcurveto
          -3 20 -3 17 19 vvcurveto
          99 56 104 96 31 108 -13 -149 58 vhcurveto
          -33 -35 4 8 -34 hvcurveto
          3 -19 2 -17 -18 vvcurveto
          -98 -56 -108 -96 -32 -114 12 158 -56 vhcurveto
          endchar
        </CharString>
      <CharString index="0">
        96 875 230 rmoveto
        -73 callgsubr
        -33 callgsubr
        rrcurveto
        -99 callgsubr
        47 95 97 21 108 -36 callsubr
        rrcurveto
        -353 66 -65 callgsubr
        return
      </CharString>
      <CharString index="1">
        -57 341 2 rmoveto
        -1 4 -1 5 4 vvcurveto
        126 -13 124 -23 122 -31 -106 callsubr
        return
      </CharString>
      <CharString index="2">
        -68 callgsubr
        53 vvcurveto
        58 -16 58 -21 58 -24 rrcurveto
        -6 24 -3 21 19 -95 callsubr
        -38 7 -37 9 -38 11 10 -49 rcurveline
        -58 -15 rlineto
        2 hlineto
        20 -2 8 callgsubr
        -3 rrcurveto
        9 -56 4 -55 -54 vvcurveto
        -120 -21 -121 -40 -122 vhcurveto
        23 87 73 0 134 hhcurveto
        return
      </CharString>
      <CharString index="3">
        rmoveto
        -49 47 -28 51 -16 62 -121 -4 rcurveline
        -25 -67 -36 -61 -57 -36 40 -8 48 -9 25 -29 16 52 15 40 30 35 24 -35 10 -50 -7 -40 38 22 53 17 40 13 rrcurveto
        endchar
      </CharString>
      <CharString index="4">
        101 -78 callgsubr
        252 252 113 268 -21 callsubr
        hvcurveto
        -86 callgsubr
        23 10 23 rrcurveto
        54 -25 38 -45 -76 vvcurveto
        return
      </CharString>
      <CharString index="5">
        30 641 6 callsubr
        3 -38 -73 callsubr
        227 226 91 214 127 -101 81 -123 23 hvcurveto
        -87 callgsubr
        39 -21 26 -34 -55 vvcurveto
        return
      </CharString>
      <CharString index="6">
        rmoveto
        -38 21 -52 42 -17 34 -34 -56 -41 -42 -45 -38 65 -69 rcurveline
        51 49 50 31 61 28 rrcurveto
        return
      </CharString>
      <CharString index="7">
        36 vlineto
        -13 -29 -43 -5 -47 hhcurveto
        -72 -80 12 17 -52 hvcurveto
        38 -87 33 -107 -65 vvcurveto
        -114 -45 -172 -142 -16 -17 2 5 -17 vhcurveto
        -2 -13 -2 -12 -3 -11 rrcurveto
        -50 62 -25 82 93 vvcurveto
        97 27 86 54 136 vhcurveto
        -138 -55 -170 21 0 vvcurveto
        -10 -67 -4 -34 -59 vvcurveto
        -250 81 -193 153 -52 vhcurveto
        -26 return
      </CharString>
      <CharString index="8">
        34 -54 37 -73 18 -44 -44 -64 -38 -70 -35 -72 7 callsubr
        -26 11 -27 12 -26 14 14 -34 17 -30 19 -26 -38 -67 -74 -120 -102 -111 -43 callsubr
        10 65 10 62 12 60 rrcurveto
        -19 50 55 -9 57 hhcurveto
        33 35 3 5 34 hvcurveto
        14 -52 8 -48 -39 vvcurveto
        -22 -2 -20 -5 -17 vhcurveto
        return
      </CharString>
      <CharString index="9">
        rmoveto
        30 -1 31 0 vhcurveto
        -38 -7 -51 -7 -31 11 rrcurveto
        9 -24 3 -18 -12 vvcurveto
        -14 -6 -16 -14 vhcurveto
        -42 19 94 -88 hhcurveto
        -62 -2 -35 -46 -53 vvcurveto
        -47 9 -34 0 vhcurveto
        15 29 47 0 30 hhcurveto
        -8 22 -3 15 11 vvcurveto
        12 4 11 12 vhcurveto
        34 -17 -90 90 hhcurveto
        67 43 47 71 hvcurveto
        endchar
      </CharString>
      <CharString index="10">
        30 -43 34 -62 16 -38 -38 -51 -33 -54 -30 -53 -24 9 -26 11 -26 13 14 -30 16 -26 19 -23 -34 -54 -67 -97 -89 -88 rrcurveto
        16 57 47 7 42 hhcurveto
        99 85 -46 0 hvcurveto
        9 53 9 51 11 48 rrcurveto
        -13 41 45 -5 46 hhcurveto
        26 28 1 4 27 hvcurveto
        12 -41 6 -38 -31 vvcurveto
        -19 -1 -18 -7 -17 vhcurveto
        return
      </CharString>
      <CharString index="11">
        -96 callsubr
        38 82 84 -22 81 hhcurveto
        178 183 108 163 11 0 11 -2 11 hvcurveto
        return
      </CharString>
      <CharString index="12">
        14 797 7 callgsubr
        -17 -14 -15 -13 -16 -11 5 59 10 60 16 61 rrcurveto
        -26 -63 -59 -14 -63 hhcurveto
        -29 -30 3 6 -31 hvcurveto
        12 -84 16 -71 26 -73 rrcurveto
        -1 -10 -11 0 -10 hhcurveto
        -123 -95 62 130 -22 callgsubr
        -24 -5 -8 callgsubr
        46 142 67 121 -89 callsubr
        55 64 8 25 59 hvcurveto
        20 -38 113 17 rlineto
        -4 33 -1 53 41 vvcurveto
        25 38 18 49 8 62 rrcurveto
        return
      </CharString>
      <CharString index="13">
        -40 734 193 rmoveto
        -42 -27 5 47 10 48 14 50 rlinecurve
        -23 -64 -56 -14 -55 hhcurveto
        -24 -31 4 6 -34 hvcurveto
        11 -68 14 -58 24 -60 rrcurveto
        -19 hlineto
        -102 -80 50 104 -46 callgsubr
        119 52 103 -88 callgsubr
        46 54 5 17 50 hvcurveto
        16 -27 117 16 rlineto
        -3 27 -1 42 32 vvcurveto
        22 31 16 39 7 49 rrcurveto
        return
      </CharString>
      <CharString index="14">
        rmoveto
        -87 callsubr
        178 hmoveto
        -87 callsubr
        endchar
      </CharString>
      <CharString index="15">
        214 1031 675 rmoveto
        -104 -97 18 37 -91 hvcurveto
        -5 -173 -12 -132 -41 -144 rrcurveto
        -51 99 -32 99 148 vvcurveto
        -3 -25 -25 -1 -25 hhcurveto
        -33 -32 2 5 -31 hvcurveto
        -14 1 -13 -12 vvcurveto
        -108 -24 -53 -50 -172 vhcurveto
        -13 184 -30 107 -49 168 -93 -24 -95 -16 -96 -5 rrcurveto
        118 -174 51 -190 -202 vvcurveto
        -30 -1 -30 -2 -30 vhcurveto
        2 19 18 1 19 hhcurveto
        76 74 -16 -23 73 hvcurveto
        8 91 48 112 26 68 54 -89 36 -98 28 -103 82 26 85 20 88 9 rrcurveto
        234 50 215 103 210 vhcurveto
        return
      </CharString>
      <CharString index="16">
        rmoveto
        -58 callsubr
        42 -27 41 -29 40 -30 rrcurveto
        11 -48 -45 callsubr
        26 98 11 95 -4 93 76 -87 61 -98 41 -106 rrcurveto
        107 51 127 1 0 vvcurveto
        -23 68 -11 67 65 -13 callsubr
        return
      </CharString>
      <CharString index="17">
        319 728 rmoveto
        -63 callgsubr
        14 66 59 7 60 hhcurveto
        -60 callsubr
        return
      </CharString>
      <CharString index="18">
        -20 -29 -24 -25 -25 -21 -81 119 -141 57 -99 31 rrcurveto
        -71 callgsubr
        -48 12 -60 50 -43 93 -80 188 -23 57 -27 rrcurveto
        0 28 -14 22 -31 vhcurveto
        -11 -44 -44 -5 -43 -29 callsubr
        17 29 35 4 39 return
      </CharString>
      <CharString index="19">
        -83 callgsubr
        rrcurveto
        -216 39 144 -108 211 hhcurveto
        return
      </CharString>
      <CharString index="20">
        18 22 20 20 23 18 rrcurveto
        -49 -257 rmoveto
        -96 -86 -58 -74 callgsubr
        5 19 7 18 7 17 rrcurveto
        return
      </CharString>
      <CharString index="21">
        21 27 23 24 26 23 rrcurveto
        -38 -322 -78 callsubr
        7 25 8 return
      </CharString>
      <CharString index="22">
        4 795 334 rmoveto
        -89 callgsubr
        51 57 -8 61 -20 callgsubr
        return
      </CharString>
      <CharString index="23">
        538 -91 callgsubr
        return
      </CharString>
      <CharString index="24">
        hhcurveto
        53 69 -16 -57 83 hvcurveto
        -7 37 -2 27 24 vvcurveto
        48 7 48 16 46 vhcurveto
        12 -79 -64 5 -57 hhcurveto
        -248 -192 -108 -210 -24 hvcurveto
        -14 3 -15 4 -15 5 return
      </CharString>
      <CharString index="25">
        -16 -13 -16 -10 -17 -10 rrcurveto
        2 vlineto
        174 -35 -262 11 -132 hhcurveto
        -94 -121 -39 callgsubr
        -29 vlineto
        -49 -3 -48 -5 -49 vhcurveto
        -39 8 -39 9 -35 11 18 -23 36 -38 51 -35 -16 -110 -27 -109 -36 -107 rrcurveto
        32 91 84 18 74 hhcurveto
        20 19 -2 -2 18 hvcurveto
        -3 63 -2 63 -1 63 rrcurveto
        -2 16 16 -1 17 hhcurveto
        return
      </CharString>
      <CharString index="26">
        rmoveto
        -49 -2 -66 23 -29 20 -13 -62 -26 -55 -34 -49 36 -3 27 -13 19 -15 28 62 53 62 54 32 rrcurveto
        return
      </CharString>
      <CharString index="27">
        20 873 566 rmoveto
        -12 -72 -59 -6 -56 hhcurveto
        -46 -50 5 12 -53 hvcurveto
        -25 -76 -40 -67 -52 -50 -49 49 -39 64 -27 76 rrcurveto
        -14 -53 -52 -7 -50 hhcurveto
        -46 -47 4 7 -48 hvcurveto
        -6 hlineto
        122 -90 96 -108 70 -121 rrcurveto
        -1 hlineto
        -7 -81 -27 -75 -38 -73 rrcurveto
        9 53 47 5 43 hhcurveto
        64 70 -11 -21 77 hvcurveto
        -34 70 -28 88 12 74 rrcurveto
        -2 hlineto
        100 132 120 114 133 103 rrcurveto
        return
      </CharString>
      <CharString index="28">
        86 913 -91 callsubr
        return
      </CharString>
      <CharString index="29">
        706 709 rmoveto
        4 -43 -39 2 -38 -75 callsubr
        return
      </CharString>
      <CharString index="30">
        709 -38 callsubr
        rrcurveto
        43 187 17 187 188 -21 callgsubr
        26 -125 16 -127 -129 vvcurveto
        -87 -7 -86 -15 -88 vhcurveto
        -41 callsubr
        return
      </CharString>
      <CharString index="31">
        -72 698 -15 rmoveto
        -20 47 -11 49 52 vvcurveto
        28 6 34 8 34 vhcurveto
        -96 -41 -90 -32 -89 -26 110 124 98 137 45 129 73 6 rcurveline
        2 hlineto
        38 -146 -142 20 -155 hhcurveto
        -73 -79 -5 -10 -85 hvcurveto
        7 -28 3 -29 -30 vvcurveto
        -45 -8 -50 -14 -54 vhcurveto
        129 65 124 47 128 33 -75 -158 -133 -139 -120 -119 -86 -12 rcurveline
        -1 hlineto
        -43 192 187 -23 243 39 10 1 19 hhcurveto
        return
      </CharString>
      <CharString index="32">
        650 -79 callsubr
        return
      </CharString>
      <CharString index="33">
        -69 callsubr
        21 30 -4 -13 45 vhcurveto
        return
      </CharString>
      <CharString index="34">
        -33 59 -25 67 -20 77 -32 -24 -31 -22 -33 -19 -40 102 -33 108 -28 111 -38 -8 -39 -5 -38 -2 14 31 15 30 16 29 return
      </CharString>
      <CharString index="35">
        hhcurveto
        -240 -265 -92 -227 -129 102 -70 123 -23 hvcurveto
        -30 callgsubr
        66 -3 53 hhcurveto
        return
      </CharString>
      <CharString index="36">
        0 -68 20 -15 62 vhcurveto
        4 31 31 2 34 hhcurveto
        100 110 -18 -51 113 hvcurveto
        0 -4 27 40 vvcurveto
        60 8 88 41 62 vhcurveto
        -135 -25 -124 0 -7 callgsubr
        -421 0 -94 -283 vhcurveto
        0 28 15 46 19 vhcurveto
        2 return
      </CharString>
      <CharString index="37">
        466 864 -27 callsubr
        51 3 53 5 51 145 -28 138 -35 100 -42 -55 callsubr
        -120 10 -55 hhcurveto
        -78 -96 -4 -9 -99 hvcurveto
        16 15 15 16 12 12 -52 -15 -47 -18 -45 -22 -22 -3 rcurveline
        -12 3 -12 4 -12 4 3 -16 rcurveline
        -86 -14 -82 -19 -67 -26 45 -5 50 -5 53 -7 -125 -90 -99 -115 -89 -114 -47 14 -47 19 -49 26 23 -54 29 -44 34 -35 -71 -94 -67 -90 -72 -71 -43 callsubr
        17 59 20 56 22 53 rrcurveto
        -6 31 31 -3 33 hhcurveto
        51 53 6 13 53 hvcurveto
        -10 -52 -13 -52 -15 -52 -19 callsubr
        rrcurveto
        -446 284 rmoveto
        63 114 69 95 64 76 rrcurveto
        5 -48 3 -48 -47 vvcurveto
        -27 -1 -26 -1 -27 vhcurveto
        -65 -33 -68 -21 -69 -8 rrcurveto
        return
      </CharString>
      <CharString index="38">
        350 783 -6 callsubr
        109 5 callgsubr
        -18 110 -24 rlinecurve
        -8 36 -3 35 35 vvcurveto
        37 4 41 8 41 vhcurveto
        -115 -34 callgsubr
        -3 58 53 vvcurveto
        58 -16 57 -20 58 9 callsubr
        3 24 7 -28 callsubr
        1 39 3 40 4 39 126 -23 121 -29 90 -34 rrcurveto
        -1 18 -1 24 18 -27 callgsubr
        -59 -106 8 -49 hhcurveto
        -66 -79 -3 -6 -83 hvcurveto
        13 11 12 12 12 10 -46 -12 -42 -14 -39 -16 -29 -3 rcurveline
        -15 3 -14 4 -15 5 1 -6 1 -6 2 -6 -75 -11 -71 -15 -58 -20 rrcurveto
        2 hlineto
        135 -14 -115 -72 -88 -91 -77 -90 rlinecurve
        -43 12 -44 18 -47 23 22 -47 28 -37 32 -30 -10 -12 rcurveline
        -56 -67 -53 -64 -69 -61 rrcurveto
        16 57 47 7 42 hhcurveto
        98 85 -46 0 hvcurveto
        15 49 18 46 20 44 rrcurveto
        -4 24 25 -1 25 hhcurveto
        42 43 4 9 44 hvcurveto
        -9 -43 -12 -42 -14 -42 rrcurveto
        23 87 73 0 75 hhcurveto
        -332 228 rmoveto
        48 81 53 68 52 58 rrcurveto
        3 -32 2 -32 -31 vvcurveto
        -22 -1 -21 -1 -22 vhcurveto
        -52 -23 -52 -16 -52 -8 rrcurveto
        return
      </CharString>
      <CharString index="39">
        -8 36 -4 35 35 vvcurveto
        36 5 41 8 42 vhcurveto
        -116 -34 callgsubr
        -2 58 return
      </CharString>
      <CharString index="40">
        -163 -75 callgsubr
        return
      </CharString>
      <CharString index="41">
        -125 516 3 rmoveto
        -55 180 -25 181 -5 182 -64 callsubr
        rrcurveto
        -54 -159 -24 -170 -186 -18 callsubr
        return
      </CharString>
      <CharString index="42">
        rmoveto
        -9 -40 -40 -4 -41 hhcurveto
        -17 -17 1 1 -17 hvcurveto
        21 81 22 75 25 70 40 -73 35 -73 29 -69 rrcurveto
        return
      </CharString>
      <CharString index="43">
        35 11 rrcurveto
        -18 vlineto
        -38 -2 -38 -4 -37 vhcurveto
        -34 6 -35 8 -32 9 16 -19 33 -30 44 -29 -14 -90 -24 -89 -33 -89 -23 callsubr
        50 -2 51 -1 50 rrcurveto
        -1 11 11 0 11 hhcurveto
        return
      </CharString>
      <CharString index="44">
        -98 -41 -82 -26 -92 -11 rrcurveto
        21 -103 9 -105 -105 6 callgsubr
        -13 -121 -21 -114 vhcurveto
        return
      </CharString>
      <CharString index="45">
        -451 -68 callsubr
        return
      </CharString>
      <CharString index="46">
        rrcurveto
        77 78 -9 -16 71 hvcurveto
        -15 callgsubr
        -12 -85 -73 -5 -73 hhcurveto
        -3 hlineto
        1 29 2 28 3 29 -22 -28 -19 -29 -18 -28 -115 4 -116 16 -113 22 -17 callsubr
        92 37 97 22 93 10 return
      </CharString>
      <CharString index="47">
        -67 callsubr
        -184 495 -51 callsubr
        -118 -551 -58 callgsubr
        -445 400 -58 callgsubr
        return
      </CharString>
      <CharString index="48">
        -100 -33 -74 -21 -85 -9 rrcurveto
        18 -82 8 -84 -83 vvcurveto
        -99 -12 -98 -18 -91 vhcurveto
        return
      </CharString>
      <CharString index="49">
        rmoveto
        16 16 -3 -6 17 hvcurveto
        -2 10 -1 8 10 vvcurveto
        49 28 52 48 15 55 -7 -74 29 vhcurveto
        -1 hlineto
        -16 -18 2 4 -17 hvcurveto
        2 -9 1 -9 -9 vvcurveto
        -49 -28 -54 -48 -16 -57 6 79 -28 vhcurveto
        return
      </CharString>
      <CharString index="50">
        rmoveto
        -69 -2 -95 33 -41 28 -19 -88 -37 -79 -48 -70 51 -4 39 -19 26 -21 40 88 77 89 76 45 rrcurveto
        return
      </CharString>
      <CharString index="51">
        49 839 -51 callgsubr
        rrcurveto
        -41 -2 -42 -4 -41 vhcurveto
        -42 4 -40 9 -36 13 -25 callgsubr
        25 9 34 6 37 3 -16 -91 -24 -91 -30 -90 -24 callgsubr
        -401 -178 rmoveto
        -26 callsubr
        -29 -10 -30 -8 -31 -5 3 151 rcurveline
        -5 callgsubr
        -13 callgsubr
        -1 52 -2 52 52 vvcurveto
        35 -2 31 -3 24 -1 rrcurveto
        endchar
      </CharString>
      <CharString index="52">
        5 18 14 2 11 hhcurveto
        42 6 -26 -13 -13 -9 -21 -30 hvcurveto
        0 -27 0 -22 28 vhcurveto
        -9 -28 -16 -23 -20 -19 rrcurveto
        -25 27 39 -12 33 hhcurveto
        37 77 11 87 6 hvcurveto
        endchar
      </CharString>
      <CharString index="53">
        rmoveto
        44 -36 35 -43 -44 -35 -35 -44 -44 35 -35 44 43 36 35 44 vhcurveto
        endchar
      </CharString>
      <CharString index="54">
        rmoveto
        62 -45 50 -54 -55 -44 -50 -62 -62 44 -51 55 54 45 51 62 vhcurveto
        -42 2 rmoveto
        -24 -24 -19 -30 -30 -24 19 24 24 24 19 30 30 24 -19 -24 vhcurveto
        endchar
      </CharString>
      <CharString index="55">
        -162 rmoveto
        -37 15 -32 24 -21 28 rrcurveto
        -22 -3 -18 -15 -20 hhcurveto
        -18 -12 14 20 return
      </CharString>
      <CharString index="56">
        404 rmoveto
        -14 -6 -14 -5 -16 -5 rrcurveto
        1 10 0 10 10 vvcurveto
        183 -192 150 -290 -71 -161 -12 -23 -73 vhcurveto
        45 -63 23 -71 -79 vvcurveto
        -16 -1 -16 -2 -17 vhcurveto
        22 16 24 14 23 10 return
      </CharString>
      <CharString index="57">
        -47 callsubr
        12 94 29 92 43 89 -4 callgsubr
        -30 -122 -17 -120 -8 -119 -62 -10 -62 -8 -64 -6 -1 104 -2 104 -4 105 -95 1 -77 16 -86 25 rrcurveto
        24 -99 11 -95 -93 vvcurveto
        -154 -31 -147 -56 -141 vhcurveto
        -5 callsubr
        return
      </CharString>
      <CharString index="58">
        -11 callgsubr
        -33 -236 8 -118 hhcurveto
        -84 -107 -9 callsubr
        -42 -46 vvcurveto
        -27 -5 -30 -10 -33 vhcurveto
        34 return
      </CharString>
      <CharString index="59">
        -47 callgsubr
        11 75 25 72 37 70 2 callgsubr
        -28 -100 -15 -98 -7 -97 -48 -6 -48 -6 -49 -5 -1 83 -2 83 -3 83 -89 1 -75 14 -84 23 rrcurveto
        22 -81 10 -77 -76 vvcurveto
        -125 -28 -119 -49 -112 vhcurveto
        -4 callsubr
        return
      </CharString>
      <CharString index="60">
        6 315 -14 rmoveto
        3 76 2 77 1 76 46 -15 46 -14 49 -11 rrcurveto
        -71 4 -68 7 -67 vhcurveto
        20 68 54 10 57 hhcurveto
        17 14 -1 -1 36 hvcurveto
        -17 49 -11 48 -7 48 29 -2 29 -1 31 -1 rrcurveto
        -6 36 -3 38 37 vvcurveto
        39 3 37 6 36 vhcurveto
        -30 -7 -30 -7 -29 -6 return
      </CharString>
      <CharString index="61">
        9 1 13 3 14 hvcurveto
        -22 -7 -22 -5 -21 -3 rrcurveto
        93 39 return
      </CharString>
      <CharString index="62">
        -57 callgsubr
        endchar
      </CharString>
      <CharString index="63">
        -21 763 -50 callsubr
        -2 -142 -32 -141 -51 -137 -29 callgsubr
        -216 -32 rmoveto
        -14 callsubr
        56 -1 57 56 vvcurveto
        62 1 64 2 63 vhcurveto
        -3 callsubr
        return
      </CharString>
      <CharString index="64">
        26 805 276 rmoveto
        100 -63 72 -88 37 vhcurveto
        25 41 23 40 21 38 -77 -5 -99 21 -58 45 -5 -30 -7 -32 -9 -33 rrcurveto
        -221 -15 -221 -95 -207 vvcurveto
        -117 85 -69 108 -29 vhcurveto
        -29 -43 -30 -43 -32 -41 34 19 34 22 33 26 rrcurveto
        -5 34 48 -2 41 10 callgsubr
        hvcurveto
        -523 -138 rmoveto
        -27 28 -17 32 36 vvcurveto
        88 85 56 80 4 vhcurveto
        -34 -80 -40 -83 -47 -81 rrcurveto
        298 233 rmoveto
        8 -17 5 -20 -24 vvcurveto
        -96 -86 -58 -85 vhcurveto
        -8 hlineto
        59 67 56 73 51 75 rrcurveto
        return
      </CharString>
      <CharString index="65">
        -30 -17 -29 -19 -28 -19 rrcurveto
        19 120 113 9 111 hhcurveto
        97 97 -8 -13 107 hvcurveto
        return
      </CharString>
      <CharString index="66">
        rmoveto
        -14 -44 -51 -7 -48 hhcurveto
        -18 -18 1 2 -18 hvcurveto
        11 -35 5 -37 -36 vvcurveto
        -17 -1 -17 -2 -17 vhcurveto
        18 23 19 20 21 11 rrcurveto
        -15 vlineto
        -94 -22 -81 -28 -79 vhcurveto
        20 54 58 10 55 hhcurveto
        -7 50 -3 48 49 vvcurveto
        73 7 71 12 71 vhcurveto
        endchar
      </CharString>
      <CharString index="67">
        rmoveto
        -67 callsubr
        return
      </CharString>
      <CharString index="68">
        -7 -23 -151 hvcurveto
        26 -48 15 -53 -56 vvcurveto
        -33 -5 -35 -10 -36 vhcurveto
        36 18 40 15 40 13 rrcurveto
        return
      </CharString>
      <CharString index="69">
        -26 callsubr
        -133 -43 -123 -6 -24 callsubr
        return
      </CharString>
      <CharString index="70">
        -22 204 114 rmoveto
        0 73 -26 107 254 114 144 149 128 -89 67 -98 28 vhcurveto
        6 7 7 6 6 5 rrcurveto
        0 -73 26 -107 -254 -114 -144 -149 -129 89 -67 97 -28 vhcurveto
        -70 204 rmoveto
        133 94 71 149 32 38 -5 -15 44 vhcurveto
        5 13 8 15 9 14 rrcurveto
        65 -32 40 -53 -75 vvcurveto
        -133 -94 -71 -149 -32 -38 5 15 -44 vhcurveto
        -6 -14 -8 -14 -9 -14 rrcurveto
        -65 32 -39 52 76 vvcurveto
        return
      </CharString>
      <CharString index="71">
        20 333 698 rmoveto
        -4 -27 -25 -1 -25 hhcurveto
        -60 -56 10 20 -61 hvcurveto
        13 -88 6 -88 -87 vvcurveto
        -176 -26 -173 -53 -171 vhcurveto
        104 34 92 20 105 6 rrcurveto
        -9 96 -4 96 96 vvcurveto
        107 -95 75 -118 51 -135 82 47 92 34 102 22 -112 96 -99 104 -71 119 111 51 108 72 97 83 -97 41 -82 55 -62 72 -84 -142 -99 -124 -119 -99 2 109 8 109 16 109 rrcurveto
        return
      </CharString>
      <CharString index="72">
        hhcurveto
        -36 48 -33 51 -30 54 27 11 27 12 27 13 return
      </CharString>
      <CharString index="73">
        -36 -113 -25 -111 -15 rrcurveto
        -5 57 return
      </CharString>
      <CharString index="74">
        -45 -24 -40 -31 -38 -36 -71 3 -68 12 -64 18 return
      </CharString>
      <CharString index="75">
        rmoveto
        -2 callgsubr
      </CharString>
      <CharString index="76">
        hhcurveto
        293 154 208 399 hvcurveto
        return
      </CharString>
      <CharString index="77">
        -14 -16 -17 -15 -18 -15 rrcurveto
        -11 31 return
      </CharString>
      <CharString index="78">
        62 19 57 15 51 6 rrcurveto
        -28 48 54 -9 50 hhcurveto
        208 189 148 173 11 -1 11 -1 11 hvcurveto
        return
      </CharString>
      <CharString index="79">
        vvcurveto
        -47 39 -56 75 26 57 7 62 46 vhcurveto
        return
      </CharString>
      <CharString index="80">
        vvcurveto
        51 7 49 14 48 vhcurveto
        4 return
      </CharString>
      <CharString index="81">
        hhcurveto
        -88 -90 14 29 -92 hvcurveto
        48 -98 -1 -73 -100 vvcurveto
        312 23 204 111 113 193 rrcurveto
        return
      </CharString>
      <CharString index="82">
        12 -48 -1 -87 -8 -45 return
      </CharString>
      <CharString index="83">
        66 24 63 15 58 7 rrcurveto
        -36 53 59 -11 54 hhcurveto
        246 220 209 234 -28 hvcurveto
        return
      </CharString>
      <CharString index="84">
        -28 callgsubr
        endchar
      </CharString>
      <CharString index="85">
        12 1 14 2 14 hvcurveto
        -24 -8 return
      </CharString>
      <CharString index="86">
        vvcurveto
        -20 -79 -80 -11 -82 hhcurveto
        -14 -15 0 1 -14 hvcurveto
        return
      </CharString>
      <CharString index="87">
        hhcurveto
        196 202 135 204 13 0 14 -2 14 hvcurveto
        return
      </CharString>
      <CharString index="88">
        -1 4 -1 5 4 vvcurveto
        return
      </CharString>
      <CharString index="89">
        vvcurveto
        -15 0 -20 1 -15 vhcurveto
        24 77 74 10 73 5 6 -1 32 hhcurveto
        return
      </CharString>
      <CharString index="90">
        rrcurveto
        10 -45 5 -47 -46 vvcurveto
        -50 -6 -50 -12 -51 vhcurveto
        return
      </CharString>
      <CharString index="91">
        vvcurveto
        -16 -82 -69 -8 -72 hhcurveto
        -47 hlineto
        return
      </CharString>
      <CharString index="92">
        -10 33 -4 25 21 vvcurveto
        37 10 24 13 22 vhcurveto
        return
      </CharString>
      <CharString index="93">
        vvcurveto
        152 50 133 93 117 vhcurveto
        return
      </CharString>
      <CharString index="94">
        -1 -19 -17 0 -15 hhcurveto
        16 -153 -102 -96 -128 -38 rrcurveto
        return
      </CharString>
      <CharString index="95">
        158 -89 -145 71 -160 hhcurveto
        -79 -170 -12 -59 -110 hvcurveto
        49 -80 20 -90 -104 vvcurveto
        100 98 144 44 133 11 rrcurveto
        2 -8 1 -9 -10 return
      </CharString>
      <CharString index="96">
        -15 -9 -14 -7 -15 -7 rrcurveto
        138 return
      </CharString>
      <CharString index="97">
        rmoveto
        -6 24 -4 35 34 vvcurveto
        32 3 30 7 21 vhcurveto
        return
      </CharString>
      <CharString index="98">
        6 -25 3 -36 -35 vvcurveto
        -32 -2 -31 -4 -21 vhcurveto
        return
      </CharString>
      <CharString index="99">
        -26 -4 rrcurveto
        118 return
      </CharString>
      <CharString index="100">
        0 vvcurveto
        0 return
      </CharString>
      <CharString index="101">
        rmoveto
        -113 106 -89 90 -85 95 rrcurveto
        -24 vlineto
        -67 -11 -56 -27 -54 vhcurveto
        16 hlineto
        71 52 -36 -55 43 hvcurveto
        return
      </CharString>
      <CharString index="102">
        87 -7 140 -35 38 -124 rrcurveto
        return
      </CharString>
      <CharString index="103">
        rrcurveto
        -10 -10 -1 -9 hhcurveto
        -88 -63 13 31 -74 hvcurveto
        return
      </CharString>
      <CharString index="104">
        rmoveto
        -45 51 -29 74 79 58 30 47 45 -55 29 -80 -79 -48 -30 -47 vhcurveto
        endchar
      </CharString>
      <CharString index="105">
        -57 callsubr
        endchar
      </CharString>
      <CharString index="106">
        -26 callsubr
        -41 -13 -49 -10 -53 -6 8 74 11 71 14 64 return
      </CharString>
      <CharString index="107">
        45 -40 29 -58 -62 -45 -30 -47 -45 43 -29 63 62 37 30 47 vhcurveto
        return
      </CharString>
      <CharString index="108">
        -17 110 return
      </CharString>
      <CharString index="109">
        rrcurveto
        -34 hlineto
        -75 -58 11 29 -74 hvcurveto
        return
      </CharString>
      <CharString index="110">
        6 -20 6 5 -25 3 -35 -2 -34 -1 -32 -5 -30 -7 -21 return
      </CharString>
      <CharString index="111">
        rrcurveto
        24 35 54 11 41 hhcurveto
        10 11 -1 -1 8 hvcurveto
        -12 return
      </CharString>
      <CharString index="112">
        -11 108 return
      </CharString>
      <CharString index="113">
        vvcurveto
        -122 return
      </CharString>
      <CharString index="114">
        241 rmoveto
        return
      </CharString>
      <CharString index="115">
        20 -2 20 return
      </CharString>
      <CharString index="116">
        hhcurveto
        252 252 113 268 return
      </CharString>
      <CharString index="117">
        hhcurveto
        227 226 91 214 return
      </CharString>
      <CharString index="118">
        vvcurveto
        -126 return
      </CharString>
</ttFont>
